<?xml version="1.0" encoding="UTF-8"?>
<svg width="20px" height="20px" viewBox="0 0 20 20" version="1.1" xmlns="http://www.w3.org/2000/svg" xmlns:xlink="http://www.w3.org/1999/xlink">
    <!-- Generator: Sketch 53.2 (72643) - https://sketchapp.com -->
    <title>active-edit</title>
    <desc>Created with Sketch.</desc>
    <g id="Visit" stroke="none" stroke-width="1" fill="none" fill-rule="evenodd">
        <g id="Question-Copy-6" transform="translate(-1260.000000, -639.000000)" fill="#00A7CE" fill-rule="nonzero">
            <g id="Body" transform="translate(71.000000, 82.000000)">
                <g id="Group" transform="translate(18.000000, 18.000000)">
                    <g id="table" transform="translate(0.000000, 324.000000)">
                        <path d="M1187.98897,222.024173 L1176.84135,233.216381 L1172.78362,229.158648 L1183.97583,218.01103 L1187.98897,222.024173 Z M1190.61981,217.520535 C1190.88735,217.788079 1191.01369,218.115073 1190.99883,218.501525 C1190.98396,218.887978 1190.8279,219.229835 1190.53063,219.527106 L1188.52406,221.533678 L1184.46632,217.475945 L1186.47289,215.469373 C1186.77016,215.172102 1187.11202,215.016037 1187.49847,215.001173 C1187.88493,214.98631 1188.21192,215.112648 1188.47946,215.380192 L1190.61981,217.520535 Z M1172.4269,229.782915 L1176.21709,233.573105 L1171,235 L1172.4269,229.782915 Z" id="active-edit"></path>
                    </g>
                </g>
            </g>
        </g>
    </g>
</svg>