<?xml version="1.0" encoding="UTF-8"?>
<svg width="16px" height="20px" viewBox="0 0 16 20" version="1.1" xmlns="http://www.w3.org/2000/svg" xmlns:xlink="http://www.w3.org/1999/xlink">
    <!-- Generator: Sketch 53.2 (72643) - https://sketchapp.com -->
    <title>delete - material copy</title>
    <desc>Created with Sketch.</desc>
    <g id="Visit" stroke="none" stroke-width="1" fill="none" fill-rule="evenodd">
        <g id="Question-Copy-5" transform="translate(-1302.000000, -604.000000)" fill="#CF0A2C">
            <g id="Body" transform="translate(71.000000, 82.000000)">
                <g id="Group" transform="translate(18.000000, 18.000000)">
                    <g id="table" transform="translate(0.000000, 242.000000)">
                        <path d="M1228.58521,263.093333 L1228.58521,265.333333 L1213,265.333333 L1213,263.093333 L1216.88291,263.093333 L1218.0344,262 L1223.57759,262 L1224.72908,263.093333 L1228.58521,263.093333 Z M1214.09793,279.76 L1214.09793,266.426667 L1227.48728,266.426667 L1227.48728,279.76 C1227.48728,280.364447 1227.26413,280.888887 1226.81782,281.333333 C1226.3715,281.77778 1225.84486,282 1225.23787,282 L1216.34734,282 C1215.74035,282 1215.21371,281.77778 1214.76739,281.333333 C1214.32108,280.888887 1214.09793,280.364447 1214.09793,279.76 Z" id="delete---material-copy"></path>
                    </g>
                </g>
            </g>
        </g>
    </g>
</svg>