<?xml version="1.0" encoding="UTF-8"?>
<svg width="15px" height="15px" viewBox="0 0 15 15" version="1.1" xmlns="http://www.w3.org/2000/svg" xmlns:xlink="http://www.w3.org/1999/xlink">
    <!-- Generator: Sketch 53.2 (72643) - https://sketchapp.com -->
    <title>add_circle - material</title>
    <desc>Created with Sketch.</desc>
    <g id="Dashboard-Study" stroke="none" stroke-width="1" fill="none" fill-rule="evenodd">
        <g id="expand-menu" transform="translate(-514.000000, -333.000000)" fill="#0065A1">
            <g id="Group-9" transform="translate(259.000000, 82.000000)">
                <g id="BODY" transform="translate(20.000000, 20.000000)">
                    <g id="notificat-1" transform="translate(0.000000, 198.000000)">
                        <g id="Add" transform="translate(235.000000, 33.000000)">
                            <path d="M11.2680288,8.23918269 L11.2680288,6.76081731 L8.23918269,6.76081731 L8.23918269,3.73197115 L6.76081731,3.73197115 L6.76081731,6.76081731 L3.73197115,6.76081731 L3.73197115,8.23918269 L6.76081731,8.23918269 L6.76081731,11.2680288 L8.23918269,11.2680288 L8.23918269,8.23918269 L11.2680288,8.23918269 Z M7.5,0 C8.87019916,0 10.1382153,0.342544651 11.3040865,1.02764423 C12.4338999,1.67668594 13.3233141,2.56610012 13.9723558,3.69591346 C14.6574553,4.86178468 15,6.12980084 15,7.5 C15,8.87019916 14.6574553,10.1382153 13.9723558,11.3040865 C13.3233141,12.4338999 12.4338999,13.3233141 11.3040865,13.9723558 C10.1382153,14.6574553 8.87019916,15 7.5,15 C6.12980084,15 4.86178468,14.6574553 3.69591346,13.9723558 C2.56610012,13.3112948 1.67668594,12.415871 1.02764423,11.2860577 C0.342544651,10.1201865 2.22400446e-16,8.85817987 0,7.5 C2.22400446e-16,6.14182013 0.342544651,4.87981352 1.02764423,3.71394231 C1.68870523,2.58412897 2.58412897,1.68870523 3.71394231,1.02764423 C4.87981352,0.342544651 6.14182013,0 7.5,0 Z" id="add_circle---material"></path>
                        </g>
                    </g>
                </g>
            </g>
        </g>
    </g>
</svg>