<?xml version="1.0" encoding="UTF-8"?>
<svg width="20px" height="20px" viewBox="0 0 20 20" version="1.1" xmlns="http://www.w3.org/2000/svg" xmlns:xlink="http://www.w3.org/1999/xlink">
    <!-- Generator: Sketch 53.2 (72643) - https://sketchapp.com -->
    <title>Icon</title>
    <desc>Created with Sketch.</desc>
    <defs>
        <path d="M11,5.00000002 L9.00000004,5.00000002 L9.00000004,9.00000004 L5.00000002,9.00000004 L5.00000002,11 L9.00000004,11 L9.00000004,15.0000001 L11,15.0000001 L11,11 L15.0000001,11 L15.0000001,9.00000004 L11,9.00000004 L11,5.00000002 L11,5.00000002 Z M10,0 C4.49000002,0 0,4.49000002 0,10 C0,15.5100001 4.49000002,20.0000001 10,20.0000001 C15.5100001,20.0000001 20.0000001,15.5100001 20.0000001,10 C20.0000001,4.49000002 15.5100001,0 10,0 L10,0 Z M10,18.0000001 C5.59000002,18.0000001 2.00000001,14.4100001 2.00000001,10 C2.00000001,5.59000002 5.59000002,2.00000001 10,2.00000001 C14.4100001,2.00000001 18.0000001,5.59000002 18.0000001,10 C18.0000001,14.4100001 14.4100001,18.0000001 10,18.0000001 L10,18.0000001 Z" id="path-1"></path>
    </defs>
    <g id="Page-1" stroke="none" stroke-width="1" fill="none" fill-rule="evenodd">
        <mask id="mask-2" fill="white">
            <use xlink:href="#path-1"></use>
        </mask>
        <use id="Icon" fill="#333E48" fill-rule="nonzero" xlink:href="#path-1"></use>
    </g>
</svg>