<?xml version="1.0" encoding="UTF-8"?>
<svg width="20px" height="24px" viewBox="0 0 20 24" version="1.1" xmlns="http://www.w3.org/2000/svg" xmlns:xlink="http://www.w3.org/1999/xlink">
    <!-- Generator: Sketch 53.2 (72643) - https://sketchapp.com -->
    <title>cancel</title>
    <desc>Created with Sketch.</desc>
    <g id="Page-2" stroke="none" stroke-width="1" fill="none" fill-rule="evenodd">
        <path d="M1.75,0 L18.25,0 C19.2164983,0 20,0.783501688 20,1.75 L20,22.25 C20,23.2164983 19.2164983,24 18.25,24 L1.75,24 C0.783501688,24 0,23.2164983 0,22.25 L0,1.75 C0,0.783501688 0.783501688,0 1.75,0 Z M10.125,3.5 C5.36154403,3.5 1.5,7.36154403 1.5,12.125 C1.5,16.888456 5.36154403,20.75 10.125,20.75 C14.888456,20.75 18.75,16.888456 18.75,12.125 C18.75,7.36154403 14.888456,3.5 10.125,3.5 Z M14.1036675,17.2258507 L4.87864683,8.33994469 L14.1036675,17.2258507 C13.00634,18.082984 11.6253179,18.59375 10.125,18.59375 C6.55240802,18.59375 3.65625,15.697592 3.65625,12.125 C3.65625,10.7116325 4.10952904,9.40413394 4.87864683,8.33994469 L14.1036675,17.2258507 Z M10.125,5.65625 C13.697592,5.65625 16.59375,8.55240802 16.59375,12.125 C16.59375,13.4928567 16.1691924,14.7615526 15.4446636,15.8065014 L6.2695164,6.93027199 C7.34620379,6.12985295 8.68029395,5.65625 10.125,5.65625 Z" id="cancel" fill="#000000"></path>
    </g>
</svg>