<?xml version="1.0" encoding="UTF-8"?>
<svg width="40px" height="41px" viewBox="0 0 40 41" version="1.1" xmlns="http://www.w3.org/2000/svg" xmlns:xlink="http://www.w3.org/1999/xlink">
    <!-- Generator: Sketch 52.5 (67469) - http://www.bohemiancoding.com/sketch -->
    <title>close - simple-line-icons</title>
    <desc>Created with Sketch.</desc>
    <g id="Page-1" stroke="none" stroke-width="1" fill="none" fill-rule="evenodd">
        <g id="Style-Guide" transform="translate(-877.000000, -4397.000000)" fill="#CF0A2C">
            <g id="03-Icons" transform="translate(98.000000, 4174.650000)">
                <g id="Contents" transform="translate(5.000000, 94.000000)">
                    <path d="M794,129 C796.76043,129 799.358061,129.520828 801.792969,130.5625 C804.227877,131.604172 806.350251,133.029939 808.160156,134.839844 C809.970061,136.649749 811.395828,138.772123 812.4375,141.207031 C813.479172,143.641939 814,146.23957 814,149 C814,151.76043 813.479172,154.358061 812.4375,156.792969 C811.395828,159.227877 809.970061,161.350251 808.160156,163.160156 C806.350251,164.970061 804.227877,166.395828 801.792969,167.4375 C799.358061,168.479172 796.76043,169 794,169 C791.23957,169 788.641939,168.479172 786.207031,167.4375 C783.772123,166.395828 781.649749,164.970061 779.839844,163.160156 C778.029939,161.350251 776.604172,159.227877 775.5625,156.792969 C774.520828,154.358061 774,151.76043 774,149 C774,146.23957 774.520828,143.641939 775.5625,141.207031 C776.604172,138.772123 778.029939,136.649749 779.839844,134.839844 C781.649749,133.029939 783.772123,131.604172 786.207031,130.5625 C788.641939,129.520828 791.23957,129 794,129 Z M794,166.539062 C796.421887,166.539062 798.694,166.076828 800.816406,165.152344 C802.938813,164.22786 804.787753,162.971362 806.363281,161.382812 C807.93881,159.794263 809.188797,157.938813 810.113281,155.816406 C811.037765,153.694 811.5,151.421887 811.5,149 C811.5,146.578113 811.037765,144.306 810.113281,142.183594 C809.188797,140.061187 807.93881,138.212247 806.363281,136.636719 C804.787753,135.06119 802.938813,133.811203 800.816406,132.886719 C798.694,131.962235 796.421887,131.5 794,131.5 C791.578113,131.5 789.306,131.962235 787.183594,132.886719 C785.061187,133.811203 783.212247,135.06119 781.636719,136.636719 C780.06119,138.212247 778.811203,140.061187 777.886719,142.183594 C776.962235,144.306 776.5,146.578113 776.5,149 C776.5,151.421887 776.962235,153.694 777.886719,155.816406 C778.811203,157.938813 780.06119,159.794263 781.636719,161.382812 C783.212247,162.971362 785.061187,164.22786 787.183594,165.152344 C789.306,166.076828 791.578113,166.539062 794,166.539062 Z M801.070312,141.929688 C801.304689,142.164064 801.421875,142.457029 801.421875,142.808594 C801.421875,143.160158 801.304689,143.453124 801.070312,143.6875 L795.757812,149 L801.070312,154.3125 C801.304689,154.546876 801.421875,154.839842 801.421875,155.191406 C801.421875,155.542971 801.304689,155.835936 801.070312,156.070312 C800.835936,156.304689 800.542971,156.421875 800.191406,156.421875 C799.839842,156.421875 799.546876,156.304689 799.3125,156.070312 L794,150.757812 L788.6875,156.070312 C788.453124,156.304689 788.160158,156.421875 787.808594,156.421875 C787.457029,156.421875 787.164064,156.304689 786.929688,156.070312 C786.695311,155.835936 786.578125,155.542971 786.578125,155.191406 C786.578125,154.839842 786.695311,154.546876 786.929688,154.3125 L792.242188,149 L786.929688,143.6875 C786.695311,143.453124 786.578125,143.160158 786.578125,142.808594 C786.578125,142.457029 786.695311,142.164064 786.929688,141.929688 C787.164064,141.695311 787.457029,141.578125 787.808594,141.578125 C788.160158,141.578125 788.453124,141.695311 788.6875,141.929688 L794,147.242188 L799.3125,141.929688 C799.546876,141.695311 799.839842,141.578125 800.191406,141.578125 C800.542971,141.578125 800.835936,141.695311 801.070312,141.929688 Z" id="close---simple-line-icons"></path>
                </g>
            </g>
        </g>
    </g>
</svg>