<?xml version="1.0" encoding="UTF-8"?>
<svg width="15px" height="15px" viewBox="0 0 15 15" version="1.1" xmlns="http://www.w3.org/2000/svg" xmlns:xlink="http://www.w3.org/1999/xlink">
    <!-- Generator: Sketch 53.2 (72643) - https://sketchapp.com -->
    <title>create</title>
    <desc>Created with Sketch.</desc>
    <g id="Dashboard-Study" stroke="none" stroke-width="1" fill="none" fill-rule="evenodd">
        <g id="expand-menu" transform="translate(-514.000000, -437.000000)">
            <g id="Group-9" transform="translate(259.000000, 82.000000)">
                <g id="BODY" transform="translate(20.000000, 20.000000)">
                    <g id="notificat-1" transform="translate(0.000000, 302.000000)">
                        <g id="query" transform="translate(234.000000, 33.000000)">
                            <g id="create" transform="translate(1.000000, 0.000000)">
                                <g>
                                    <path d="M13.6595745,2.93617021 C14.399871,2.93617021 15,3.53629917 15,4.27659574 L15,13.5319149 C15,14.3427159 14.3427159,15 13.5319149,15 L8.29787234,15 L10.7539478,12.1914894 L7.78723404,2.93617021 L13.6595745,2.93617021 Z" id="Rectangle" fill="#FFFFFF" fill-rule="nonzero"></path>
                                    <polygon id="Triangle" fill="#4D4D4F" fill-rule="nonzero" points="10.8510638 12.1914894 8.30218781 15 7.38592919 12.1914894"></polygon>
                                    <path d="M9.43582856,7.90085545 L11.347664,7.90085545 L11.347664,5.74468085 L12.0548892,5.74468085 L12.0548892,7.90085545 L14.2110638,7.90085545 L14.2110638,8.60808072 L12.0548892,8.60808072 L12.0548892,10.7642553 L11.347664,10.7642553 L11.347664,8.60808072 L9.66910182,8.60808072 L10.1962943,10.2063945 C10.4178669,10.7933644 10.5200422,11.1031338 10.5028201,11.1357027 L10.8510638,12.1914894 L1.46808511,12.1914894 C0.657284091,12.1914894 1.13686838e-13,11.5342053 1.13686838e-13,10.7234043 L1.13686838e-13,1.34042553 C1.13686838e-13,0.600128952 0.600128952,0 1.34042553,0 L6.82978723,0 L9.43582856,7.90085545 Z M4.18085106,5.80851064 C5.11503484,5.80851064 5.87234043,5.05120506 5.87234043,4.11702128 C5.87234043,3.1828375 5.11503484,2.42553191 4.18085106,2.42553191 C3.24666728,2.42553191 2.4893617,3.1828375 2.4893617,4.11702128 C2.4893617,5.05120506 3.24666728,5.80851064 4.18085106,5.80851064 Z M4.15075934,6.31914894 C2.75261274,6.31914894 1.58152718,7.19643479 1.27659574,8.37428547 C1.58271692,8.8268991 2.16946476,9.5106383 4.15075934,9.57446809 C6.17166722,9.5106383 6.66447806,8.91793357 7.0212766,8.36037073 C6.71075544,7.18953214 5.54339463,6.31914894 4.15075934,6.31914894 Z" id="Combined-Shape" fill="#000000" fill-rule="nonzero"></path>
                                </g>
                            </g>
                        </g>
                    </g>
                </g>
            </g>
        </g>
    </g>
</svg>