<?xml version="1.0" encoding="UTF-8"?>
<svg width="16px" height="20px" viewBox="0 0 16 20" version="1.1" xmlns="http://www.w3.org/2000/svg" xmlns:xlink="http://www.w3.org/1999/xlink">
    <!-- Generator: Sketch 53.2 (72643) - https://sketchapp.com -->
    <title>delete - material copy 2</title>
    <desc>Created with Sketch.</desc>
    <g id="New-Com-Stage" stroke="none" stroke-width="1" fill="none" fill-rule="evenodd">
        <g id="New:-TStage-Copy-4" transform="translate(-1304.000000, -596.000000)" fill="#CF0A2C">
            <g id="Body" transform="translate(71.000000, 82.000000)">
                <g id="Group" transform="translate(20.000000, 20.000000)">
                    <g id="stage-Trans" transform="translate(440.000000, 382.000000)">
                        <g id="table" transform="translate(0.000000, 58.000000)">
                            <g id="table-content" transform="translate(0.000000, 36.000000)">
                                <path d="M788.58521,19.0933333 L788.58521,21.3333333 L773,21.3333333 L773,19.0933333 L776.882913,19.0933333 L778.034398,18 L783.577591,18 L784.729076,19.0933333 L788.58521,19.0933333 Z M774.097927,35.76 L774.097927,22.4266667 L787.487283,22.4266667 L787.487283,35.76 C787.487283,36.3644475 787.264129,36.8888867 786.817815,37.3333333 C786.371501,37.77778 785.844858,38 785.237871,38 L776.347339,38 C775.740352,38 775.213709,37.77778 774.767395,37.3333333 C774.321081,36.8888867 774.097927,36.3644475 774.097927,35.76 Z" id="delete---material-copy-2"></path>
                            </g>
                        </g>
                    </g>
                </g>
            </g>
        </g>
    </g>
</svg>