<?xml version="1.0" encoding="UTF-8"?>
<svg width="18px" height="18px" viewBox="0 0 18 18" version="1.1" xmlns="http://www.w3.org/2000/svg" xmlns:xlink="http://www.w3.org/1999/xlink">
    <!-- Generator: Sketch 53.2 (72643) - https://sketchapp.com -->
    <title>filter</title>
    <desc>Created with Sketch.</desc>
    <g id="Dashboard-Study" stroke="none" stroke-width="1" fill="none" fill-rule="evenodd">
        <g id="expand-menu" transform="translate(-534.000000, -269.000000)" fill="#000000" fill-rule="nonzero">
            <g id="Group-9" transform="translate(259.000000, 82.000000)">
                <g id="BODY" transform="translate(20.000000, 20.000000)">
                    <g id="notif-header" transform="translate(1.000000, 165.000000)">
                        <g id="filter" transform="translate(254.000000, 2.000000)">
                            <path d="M9,18 C4.02943725,18 0,13.9705627 0,9 C0,4.02943725 4.02943725,0 9,0 C13.9705627,0 18,4.02943725 18,9 C18,13.9705627 13.9705627,18 9,18 Z M5.7027027,9.865 L12.5135135,9.865 L12.5135135,8.635 L5.7027027,8.635 L5.7027027,9.865 Z M4,5.5 L4,6.76 L14.2162162,6.76 L14.2162162,5.5 L4,5.5 Z M7.96389189,13 L10.2523243,13 L10.2523243,11.74 L7.96389189,11.74 L7.96389189,13 Z"></path>
                        </g>
                    </g>
                </g>
            </g>
        </g>
    </g>
</svg>