<?xml version="1.0" encoding="UTF-8"?>
<svg width="20px" height="20px" viewBox="0 0 20 20" version="1.1" xmlns="http://www.w3.org/2000/svg" xmlns:xlink="http://www.w3.org/1999/xlink">
    <!-- Generator: Sketch 53 (72520) - https://sketchapp.com -->
    <title>info-circle - anticon</title>
    <desc>Created with Sketch.</desc>
    <g id="Page-1" stroke="none" stroke-width="1" fill="none" fill-rule="evenodd">
        <g id="Report:-ABath" transform="translate(-1269.000000, -467.000000)" fill="#000000">
            <g id="Body" transform="translate(71.000000, 82.000000)">
                <g id="table" transform="translate(20.000000, 336.000000)">
                    <g id="detail" transform="translate(8.000000, 48.000000)">
                        <path d="M1185.01953,2.34765625 C1186.556,3.23307734 1187.77018,4.44400273 1188.66211,5.98046875 C1189.55404,7.51693477 1190,9.19009512 1190,11 C1190,12.8099049 1189.55404,14.4830652 1188.66211,16.0195312 C1187.77018,17.5559973 1186.556,18.7701778 1185.01953,19.6621094 C1183.48307,20.5540409 1181.8099,21 1180,21 C1178.1901,21 1176.51693,20.5540409 1174.98047,19.6621094 C1173.444,18.7701778 1172.22982,17.5559973 1171.33789,16.0195312 C1170.44596,14.4830652 1170,12.8099049 1170,11 C1170,9.19009512 1170.44596,7.51693477 1171.33789,5.98046875 C1172.22982,4.44400273 1173.444,3.22982217 1174.98047,2.33789062 C1176.51693,1.44595908 1178.1901,1 1180,1 C1181.8099,1 1183.48307,1.44921426 1185.01953,2.34765625 Z M1179.43359,4.80859375 C1179.30338,4.95182363 1179.23828,5.1178376 1179.23828,5.30664062 C1179.23828,5.49544365 1179.30664,5.65820244 1179.44336,5.79492188 C1179.58008,5.93164131 1179.74609,6 1179.94141,6 C1180.13672,6 1180.30273,5.93164131 1180.43945,5.79492188 C1180.57617,5.65820244 1180.64453,5.49544365 1180.64453,5.30664062 C1180.64453,5.1178376 1180.57617,4.95182363 1180.43945,4.80859375 C1180.30273,4.66536387 1180.13672,4.59375 1179.94141,4.59375 C1179.74609,4.59375 1179.57682,4.66536387 1179.43359,4.80859375 Z M1183.00781,15.4921875 C1183.00781,15.296874 1182.93945,15.1308601 1182.80273,14.9941406 C1182.66601,14.8574212 1182.5,14.7890625 1182.30469,14.7890625 L1180.64453,14.7890625 L1180.64453,7.953125 C1180.64453,7.75781152 1180.57617,7.59179756 1180.43945,7.45507812 C1180.30273,7.31835869 1180.13672,7.25 1179.94141,7.25 L1178.06641,7.25 C1177.87109,7.25 1177.70508,7.31835869 1177.56836,7.45507812 C1177.43164,7.59179756 1177.36328,7.75781152 1177.36328,7.953125 C1177.36328,8.13541758 1177.43164,8.29817637 1177.56836,8.44140625 C1177.70508,8.58463613 1177.87109,8.65625 1178.06641,8.65625 L1179.23828,8.65625 L1179.23828,14.7890625 L1177.57812,14.7890625 C1177.38281,14.7890625 1177.2168,14.8574212 1177.08008,14.9941406 C1176.94336,15.1308601 1176.875,15.296874 1176.875,15.4921875 C1176.875,15.687501 1176.94336,15.8535149 1177.08008,15.9902344 C1177.2168,16.1269538 1177.38281,16.1953125 1177.57812,16.1953125 L1182.30469,16.1953125 C1182.5,16.1953125 1182.66601,16.1269538 1182.80273,15.9902344 C1182.93945,15.8535149 1183.00781,15.687501 1183.00781,15.4921875 Z" id="info-circle---anticon"></path>
                    </g>
                </g>
            </g>
        </g>
    </g>
</svg>