<?xml version="1.0" encoding="UTF-8"?>
<svg width="40px" height="41px" viewBox="0 0 40 41" version="1.1" xmlns="http://www.w3.org/2000/svg" xmlns:xlink="http://www.w3.org/1999/xlink">
    <!-- Generator: Sketch 52.5 (67469) - http://www.bohemiancoding.com/sketch -->
    <title>minus-circle-o - anticon</title>
    <desc>Created with Sketch.</desc>
    <g id="Page-1" stroke="none" stroke-width="1" fill="none" fill-rule="evenodd">
        <g id="Style-Guide" transform="translate(-110.000000, -4876.000000)" fill="#000000">
            <g id="03-Icons" transform="translate(98.000000, 4174.650000)">
                <g id="Contents" transform="translate(5.000000, 94.000000)">
                    <path d="M37.0390625,610.545313 C40.1119945,612.316155 42.5403557,614.738005 44.3242188,617.810938 C46.1080818,620.88387 47,624.23019 47,627.85 C47,631.46981 46.1080818,634.81613 44.3242188,637.889063 C42.5403557,640.961995 40.1119945,643.390356 37.0390625,645.174219 C33.9661305,646.958082 30.6198098,647.85 27,647.85 C23.3801902,647.85 20.0338695,646.958082 16.9609375,645.174219 C13.8880055,643.390356 11.4596443,640.961995 9.67578125,637.889063 C7.89191816,634.81613 7,631.46981 7,627.85 C7,624.23019 7.89191816,620.88387 9.67578125,617.810938 C11.4596443,614.738005 13.8880055,612.309644 16.9609375,610.525781 C20.0338695,608.741918 23.3801902,607.85 27,607.85 C30.6198098,607.85 33.9661305,608.748429 37.0390625,610.545313 Z M39.1484375,639.998438 C40.7369871,638.409888 41.9739539,636.586989 42.859375,634.529688 C43.7447961,632.420302 44.1875,630.193762 44.1875,627.85 C44.1875,625.506238 43.7317754,623.279698 42.8203125,621.170313 C41.9609332,619.113011 40.7369871,617.290112 39.1484375,615.701563 C37.5598879,614.113013 35.7369895,612.876046 33.6796875,611.990625 C31.570302,611.105204 29.3437617,610.6625 27,610.6625 C24.6562383,610.6625 22.429698,611.118225 20.3203125,612.029688 C18.2630105,612.889067 16.4401121,614.113013 14.8515625,615.701563 C13.2630129,617.290112 12.0260461,619.113011 11.140625,621.170313 C10.2552039,623.279698 9.8125,625.506238 9.8125,627.85 C9.8125,630.193762 10.2682246,632.420302 11.1796875,634.529688 C12.0390668,636.586989 13.2630129,638.409888 14.8515625,639.998438 C16.4401121,641.586987 18.2630105,642.823954 20.3203125,643.709375 C22.429698,644.594796 24.6562383,645.0375 27,645.0375 C29.3437617,645.0375 31.570302,644.581775 33.6796875,643.670313 C35.7369895,642.810933 37.5598879,641.586987 39.1484375,639.998438 Z M38.09375,629.25625 L15.90625,629.25625 C15.515623,629.25625 15.1835951,629.119533 14.9101562,628.846094 C14.6367174,628.572655 14.5,628.240627 14.5,627.85 C14.5,627.459373 14.6367174,627.127345 14.9101562,626.853906 C15.1835951,626.580467 15.515623,626.44375 15.90625,626.44375 L38.09375,626.44375 C38.484377,626.44375 38.8164049,626.580467 39.0898438,626.853906 C39.3632826,627.127345 39.5,627.459373 39.5,627.85 C39.5,628.240627 39.3632826,628.572655 39.0898438,628.846094 C38.8164049,629.119533 38.484377,629.25625 38.09375,629.25625 Z" id="minus-circle-o---anticon"></path>
                </g>
            </g>
        </g>
    </g>
</svg>