<?xml version="1.0" encoding="UTF-8"?>
<svg width="163px" height="169px" viewBox="0 0 163 169" version="1.1" xmlns="http://www.w3.org/2000/svg" xmlns:xlink="http://www.w3.org/1999/xlink">
    <!-- Generator: Sketch 53.2 (72643) - https://sketchapp.com -->
    <title>new_version</title>
    <desc>Created with Sketch.</desc>
    <g id="Symbols" stroke="none" stroke-width="1" fill="none" fill-rule="evenodd">
        <g id="new_version" fill="#407CCA" fill-rule="nonzero">
            <path d="M113.773437,0 L163,48 L113.773437,48 L113.773437,0 Z M45,0 L108,0 L108,51.6132812 L163,51.6132812 L163,169 L45,169 L45,0 Z M122,111.334928 L108.334928,111.334928 L108.334928,125 L101.665072,125 L101.665072,111.334928 L88,111.334928 L88,104.665072 L101.665072,104.665072 L101.665072,91 L108.334928,91 L108.334928,104.665072 L122,104.665072 L122,111.334928 Z M104.5,74 C98.4334633,74 92.7965004,75.5300328 87.5889423,78.5901442 C82.5424427,81.5428834 78.5428834,85.5424427 75.5901442,90.5889423 C72.5300328,95.7965004 71,101.433463 71,107.5 C71,113.566537 72.5300328,119.2035 75.5901442,124.411058 C78.4891972,129.457557 82.4619139,133.457117 87.5084135,136.409856 C92.7159716,139.469967 98.3797771,141 104.5,141 C110.620223,141 116.284028,139.469967 121.491587,136.409856 C126.538086,133.510803 130.510803,129.538086 133.409856,124.491587 C136.469967,119.284028 138,113.620223 138,107.5 C138,101.379777 136.469967,95.7159716 133.409856,90.5084135 C130.510803,85.4619139 126.538086,81.4891972 121.491587,78.5901442 C116.284028,75.5300328 110.620223,74 104.5,74 Z M36.515625,152.410156 L36.515625,158.410156 L21,158.410156 L21,11.6210938 L36.515625,11.6210938 L36.515625,17.6210938 L27,17.6210938 L27,152.410156 L36.515625,152.410156 Z M15.515625,137.789062 L15.515625,143.789062 L2.27373675e-13,143.789062 L2.27373675e-13,25 L15.515625,25 L15.515625,31 L6,31 L6,137.789063 L15.515625,137.789062 Z"></path>
        </g>
    </g>
</svg>