<?xml version="1.0" encoding="UTF-8"?>
<svg width="212px" height="272px" viewBox="0 0 212 272" version="1.1" xmlns="http://www.w3.org/2000/svg" xmlns:xlink="http://www.w3.org/1999/xlink">
    <!-- Generator: Sketch 53.2 (72643) - https://sketchapp.com -->
    <title>Group 3</title>
    <desc>Created with Sketch.</desc>
    <g id="Symbols" stroke="none" stroke-width="1" fill="none" fill-rule="evenodd">
        <g id="Group-3">
            <path d="M19.3190402,3 L143.829938,3 L209,69 L209,247 C209,260.807119 206.555166,268.876953 192.748047,268.876953 C126.719835,268.876953 78.741645,268.876953 48.8134766,268.876953 C40.4733851,268.876953 33.3174606,268.876953 27.3457031,268.876953 C16.8522929,268.876953 8.13867188,272 3.73046875,263.545898 C-2.26465615,252.04838 2.32265984,253.258633 2.33323589,253 C2.33323589,243.522766 2.33323589,236.70636 2.33323589,232.550781 C2.33323589,184.205078 2.33323589,109.505208 2.33323589,8.45117187" id="Rectangle" fill="#FFFFFF"></path>
            <path d="M205.186254,69.1333333 L145.85228,69.1333333 C145.179109,69.1333333 144.645833,68.5984675 144.645833,67.9386769 L144.645833,6.99373153 L143.352921,5.66666667 L13.5840533,5.66666667 C9.22975141,5.66666667 5.67571467,9.18955994 5.67571467,13.4885223 L5.67571467,258.511478 C5.67571467,262.734097 9.27223757,266.333333 13.5840533,266.333333 L198.415947,266.333333 C202.770249,266.333333 206.324285,262.81044 206.324285,258.511478 L206.324285,70.3014257 L205.186254,69.1333333 Z M145.75,0 L212,68 L212,258.511478 C212,265.960983 205.883884,272 198.415947,272 L13.5840533,272 C6.08178784,272 0,265.807844 0,258.511478 L0,13.4885223 C0,6.03901713 6.11611557,0 13.5840533,0 L145.75,0 Z M63.7918425,172.029342 C67.3382239,168.943909 71.7561765,163.630564 76.568878,156.345524 C82.7507108,146.993134 88.3710682,136.391662 92.0348076,126.540595 C95.5504676,117.08913 98.0184575,106.202309 98.8168345,98.5044814 C98.8993024,97.7149429 99.1766063,95.2190922 99.2242021,94.745782 C99.2929095,94.0625294 99.3249547,93.6125759 99.3304322,93.3468685 C99.3757965,93.7709812 99.7312622,94.4848602 100.08989,94.9694759 C100.384249,95.0210002 100.628196,95.0157197 100.79154,94.99425 C100.720043,95.0090095 100.692485,95.013412 100.417211,95.0573876 C100.290167,95.0742248 100.232541,95.081862 100.181464,95.0881448 C100.323829,95.2647069 100.462507,95.3994251 100.577889,95.4671707 C100.338829,95.3197907 100.315299,95.3059934 100.073826,95.1644016 C100.054246,95.1530295 100.037386,95.143237 100.022532,95.1346135 C99.8740644,95.5268699 99.6762435,96.3490368 99.5099458,97.6168587 C99.2270185,99.7178883 99.1667051,102.037156 99.3918901,104.448325 C99.6335176,107.027708 100.251004,110.103474 101.193205,113.520736 C102.218911,117.25104 103.317494,120.17212 105.081689,123.576397 C107.160759,127.566873 110.246074,132.286039 113.934198,137.0664 C117.502069,141.682351 121.9797,146.782575 125.952131,150.827912 C127.372406,152.274253 128.67622,153.530443 129.917648,154.649546 C129.019785,154.529996 128.117054,154.431673 127.219872,154.356968 C124.235177,154.099895 121.169847,154.099895 118.012108,154.359807 C115.07069,154.59449 111.93908,155.054934 107.515654,155.874635 C102.353194,156.827491 98.2801727,157.766107 93.3000008,159.259048 C86.8441432,161.184215 80.0733746,163.725854 75.144881,166.169038 C70.4177888,168.52413 66.6426706,171.151936 64.2671302,173.517081 C62.7829871,175.000031 62.2381996,175.951608 62.0245527,176.926565 C61.9410657,177.294223 61.9487921,177.40558 61.7416575,177.011443 C60.9009115,175.411667 59.2749979,174.895647 58.7388363,174.989156 C59.9830184,174.771526 61.4829872,174.027734 63.7918425,172.029342 Z M134.773266,158.588828 C137.241609,160.380045 139.347697,161.54928 140.843435,162.003861 C141.866895,162.314909 142.618409,162.301634 143.432776,162.033431 C143.93754,161.869989 144.059159,161.777271 144.029613,161.841527 C144.094329,161.701751 144.083546,161.135019 143.826556,160.553436 C143.462766,159.719294 142.509536,158.696061 141.206161,157.861189 C139.877124,157.005685 138.185916,156.35223 135.692604,155.728845 C133.866651,155.282429 131.904063,154.914037 129.917648,154.649546 C131.60625,156.171761 133.179427,157.440341 134.773266,158.588828 Z M102.288726,130.385667 C101.561837,132.340125 100.767494,134.315311 99.9143048,136.2994 C98.1600096,133.637929 96.6288558,131.062085 95.3774538,128.660184 C93.2275209,124.511603 91.8612343,120.87871 90.64331,116.449342 C89.5430524,112.458828 88.8029997,108.772549 88.494189,105.475979 C88.1891122,102.209372 88.2711707,99.0539263 88.6604832,96.1631225 C89.0623885,93.0985822 89.7306722,90.7821912 90.9857985,88.8701957 C92.3183255,86.8445146 94.1312209,85.5630321 96.071744,84.8353325 C97.0952583,84.4380748 97.7843754,84.29974 98.8073719,84.1841062 C98.8173071,84.1855255 98.8173071,84.1855255 98.9214073,84.1668992 C100.249443,83.9277665 101.34538,83.9113853 102.742976,84.3453093 C103.580577,84.5934525 104.29006,84.93341 105.172106,85.4313895 C105.37932,85.549255 105.37932,85.549255 105.568764,85.6593233 C105.833334,85.814409 105.87565,85.8392139 105.717373,85.7698688 C110.926302,88.0835609 110.916113,88.0347913 109.70341,99.6448445 C108.811272,108.244532 106.137455,120.038782 102.288726,130.385667 Z M94.5438216,147.489903 C98.1527597,146.533651 101.565021,145.798463 105.532932,145.066091 C105.751283,145.025628 105.966927,144.985948 106.179977,144.947036 C105.876446,144.562797 105.577642,144.180512 105.284195,143.800863 C103.334479,141.273742 101.52978,138.750265 99.9143048,136.2994 C98.3125559,140.024263 96.5034054,143.780508 94.5438216,147.489903 Z M117.131435,143.405088 C120.877758,143.096709 124.554854,143.096709 128.139871,143.40551 C131.580571,143.69198 135.082895,144.268319 138.309587,145.057269 C141.890209,145.952398 144.633064,147.012192 147.103213,148.602248 C150.107201,150.526402 152.542961,153.141043 153.842087,156.119998 C155.327815,159.481329 155.401436,163.350821 153.960695,166.462588 C152.568771,169.487981 149.98096,171.460832 146.818587,172.484731 C143.917513,173.440433 140.868616,173.494289 137.672463,172.522922 C134.820824,171.656259 131.728344,169.939409 128.376646,167.507125 C125.099212,165.145519 121.929377,162.38487 118.157972,158.544248 C114.216168,154.530101 109.852098,149.595551 106.179977,144.947036 C110.609661,144.137994 113.918353,143.661429 117.131435,143.405088 Z M85.6894907,162.421835 C80.3699814,170.474036 75.3372661,176.526739 70.9490515,180.344562 C67.1748454,183.611303 63.8744283,185.247393 60.6220915,185.815617 C56.9660742,186.459882 53.8046034,185.458102 52.0611195,182.140591 C50.9202315,179.969702 50.7298934,177.226437 51.3434956,174.525018 C52.0156026,171.455499 53.6231905,168.647535 56.5532327,165.71986 C59.8098385,162.477488 64.54647,159.180387 70.2895235,156.319144 C75.8443083,153.565477 83.1762447,150.813184 90.17621,148.725768 C91.6921016,148.271337 93.13299,147.863728 94.5438216,147.489903 C91.8303989,152.626278 88.8285388,157.672823 85.6894907,162.421835 Z" id="Shape" fill="#D0021B" fill-rule="nonzero"></path>
        </g>
    </g>
</svg>