<?xml version="1.0" encoding="UTF-8"?>
<svg width="40px" height="40px" viewBox="0 0 40 40" version="1.1" xmlns="http://www.w3.org/2000/svg" xmlns:xlink="http://www.w3.org/1999/xlink">
    <!-- Generator: Sketch 52.5 (67469) - http://www.bohemiancoding.com/sketch -->
    <title>plus_circle-[#1425]</title>
    <desc>Created with Sketch.</desc>
    <g id="Page-1" stroke="none" stroke-width="1" fill="none" fill-rule="evenodd">
        <g id="Style-Guide" transform="translate(-397.000000, -4707.000000)" fill="#000000" fill-rule="nonzero">
            <g id="03-Icons" transform="translate(98.000000, 4174.650000)">
                <g id="Contents" transform="translate(5.000000, 94.000000)">
                    <path d="M315.882904,456.35 L321.850969,456.35 L321.850969,460.35 L315.882904,460.35 L315.882904,466.35 L311.904194,466.35 L311.904194,460.35 L305.93613,460.35 L305.93613,456.35 L311.904194,456.35 L311.904194,450.35 L315.882904,450.35 L315.882904,456.35 Z M313.893549,474.35 C305.117652,474.35 297.97871,467.172 297.97871,458.35 C297.97871,449.528 305.117652,442.35 313.893549,442.35 C322.669447,442.35 329.808389,449.528 329.808389,458.35 C329.808389,467.172 322.669447,474.35 313.893549,474.35 Z M313.893549,438.35 C302.904732,438.35 294,447.304 294,458.35 C294,469.396 302.904732,478.35 313.893549,478.35 C324.882367,478.35 333.787099,469.396 333.787099,458.35 C333.787099,447.304 324.882367,438.35 313.893549,438.35 Z" id="plus_circle-[#1425]"></path>
                </g>
            </g>
        </g>
    </g>
</svg>