<?xml version="1.0" encoding="UTF-8"?>
<svg width="66px" height="66px" viewBox="0 0 66 66" version="1.1" xmlns="http://www.w3.org/2000/svg" xmlns:xlink="http://www.w3.org/1999/xlink">
    <!-- Generator: Sketch 53.2 (72643) - https://sketchapp.com -->
    <title>Combined Shape</title>
    <desc>Created with Sketch.</desc>
    <g id="Page-1" stroke="none" stroke-width="1" fill="none" fill-rule="evenodd" fill-opacity="0.2">
        <path d="M24.0714545,57.4296847 C19.6327928,55.9013309 17.2735221,51.0641091 18.8018759,46.6254475 C20.3302297,42.1867858 25.1674515,39.8275151 29.6061131,41.3558689 C34.0447748,42.8842227 36.4040455,47.7214444 34.8756917,52.1601061 C33.3473379,56.5987678 28.5101162,58.9580385 24.0714545,57.4296847 Z M33.2896588,4.54987086 L49.3634746,10.0845295 L36.0227817,39.3348223 L25.7939898,35.8127669 L33.2896588,4.54987086 Z M22.2652367,64.2110988 C5.03278553,58.27749 -4.12673598,39.4976879 1.8068728,22.2652367 C7.74048158,5.03278553 26.5202837,-4.12673598 43.7527349,1.8068728 C60.9851861,7.74048158 70.1447076,26.5202837 64.2110988,43.7527349 C58.27749,60.9851861 39.4976879,70.1447076 22.2652367,64.2110988 Z M22.916373,62.3200616 C39.1044332,67.8940578 56.7460655,59.2896588 62.3200616,43.1015986 C67.8940578,26.9135384 59.2896588,9.27190608 43.1015986,3.69790995 C26.9135384,-1.87608618 9.27190608,6.72831282 3.69790995,22.916373 C-1.87608618,39.1044332 6.72831282,56.7460655 22.916373,62.3200616 Z" id="Combined-Shape" fill="#4D4D4F" fill-rule="nonzero"></path>
    </g>
</svg>