<?xml version="1.0" encoding="UTF-8"?>
<svg width="173px" height="95px" viewBox="0 0 173 95" version="1.1" xmlns="http://www.w3.org/2000/svg" xmlns:xlink="http://www.w3.org/1999/xlink">
    <!-- Generator: Sketch 53.2 (72643) - https://sketchapp.com -->
    <title>sample-pull-request copy</title>
    <desc>Created with Sketch.</desc>
    <g id="Page-1" stroke="none" stroke-width="1" fill="none" fill-rule="evenodd">
        <g id="sample-pull-request-copy" transform="translate(0.000000, -1.771739)" fill="#000000" fill-rule="nonzero">
            <path d="M28.2251263,3.73771211 L28.1929862,3.73771211 L6.99222228,18.3311903 L1.95772809,21.4101831 L21.139689,91.9884877 L22.4949853,91.9803632 L21.1718291,91.9884877 L1.98986823,21.4101831 L7.02436241,18.3311903 L28.2251263,3.73771211 L28.2251263,3.73771211 Z M22.4950427,91.9805555 L156.830476,91.1752587 L22.4950427,91.9805555 Z M5.58979841,28.3743348 L22.4292228,90.3334867 L122.119633,89.7358755 L126.800584,28.3743348 L117.635848,28.3743348 L117.635848,34.7394197 C117.635848,34.9048474 117.501743,35.0389531 117.336315,35.0389531 L111.944713,35.0389531 C111.779286,35.0389531 111.64518,34.9048474 111.64518,34.7394197 L111.64518,28.3743348 L17.292157,28.3743348 L17.292157,34.7394197 C17.292157,34.9048474 17.1580513,35.0389531 16.9926236,35.0389531 L11.6010223,35.0389531 C11.4355945,35.0389531 11.3014889,34.9048474 11.3014889,34.7394197 L11.3014889,28.3743348 L5.58979841,28.3743348 Z M119.215367,5.38514585 L28.7373216,5.38514585 L7.95846127,19.6882081 C7.93404619,19.7050141 7.90918201,19.7211582 7.88389587,19.7366227 L3.90377957,22.1707797 L5.18275845,26.8766678 L13.1501716,26.8766678 L14.2968229,24.2557505 L15.4434742,26.8766678 L57.8040502,26.8766678 L57.8040502,24.1808671 C57.8040502,23.8500117 58.0722616,23.5818003 58.403117,23.5818003 L69.2886993,23.5818003 C69.6195547,23.5818003 69.8877661,23.8500117 69.8877661,24.1808671 L69.8877661,26.8766678 L113.493863,26.8766678 L114.640514,24.2557505 L115.787165,26.8766678 L125.894507,26.8766678 L126.669894,21.2661448 L119.215367,5.38514585 Z M120.606735,5.38514585 L128.21422,21.0315293 L127.199428,28.3743348 L127.100988,28.3743348 L122.420175,89.7340739 L125.691575,89.7144629 L130.74875,23.4210757 L131.047416,23.4438593 L131.042606,23.506917 L166.350622,23.506917 L159.56058,69.7076048 L127.518197,69.7076048 L125.992116,89.7126612 L157.995882,89.5208092 L169.238624,21.7330005 L152.305367,5.38514585 L120.606735,5.38514585 Z M132.762285,30.6957187 L132.312985,35.0389531 L139.501787,35.0389531 L140.100854,30.6957187 L132.762285,30.6957187 Z M144.294321,30.6957187 L143.845021,35.0389531 L151.033823,35.0389531 L151.63289,30.6957187 L144.294321,30.6957187 Z M155.377057,30.6957187 L154.927757,35.0389531 L162.116559,35.0389531 L162.715626,30.6957187 L155.377057,30.6957187 Z M134.259952,66.9392609 C135.335233,66.9392609 136.206919,66.067574 136.206919,64.9922938 C136.206919,63.9170135 135.335233,63.0453266 134.259952,63.0453266 C133.184672,63.0453266 132.312985,63.9170135 132.312985,64.9922938 C132.312985,66.067574 133.184672,66.9392609 134.259952,66.9392609 Z M143.545488,66.9392609 C144.620768,66.9392609 145.492455,66.067574 145.492455,64.9922938 C145.492455,63.9170135 144.620768,63.0453266 143.545488,63.0453266 C142.470208,63.0453266 141.598521,63.9170135 141.598521,64.9922938 C141.598521,66.067574 142.470208,66.9392609 143.545488,66.9392609 Z M152.681257,66.9392609 C153.756537,66.9392609 154.628224,66.067574 154.628224,64.9922938 C154.628224,63.9170135 153.756537,63.0453266 152.681257,63.0453266 C151.605977,63.0453266 150.73429,63.9170135 150.73429,64.9922938 C150.73429,66.067574 151.605977,66.9392609 152.681257,66.9392609 Z M139.137316,41.1793879 L137.726817,54.1535136 L153.586877,54.1535136 L155.709645,41.1793879 L139.137316,41.1793879 Z M140.90936,43.1263551 L153.59068,43.1263551 L152.508674,51.0242086 L140.100854,51.0242086 L140.90936,43.1263551 Z M59.0021839,26.8766678 L68.6896325,26.8766678 L68.6896325,24.7799339 L59.0021839,24.7799339 L59.0021839,26.8766678 Z M126.731667,21.0463209 L126.684876,21.2661448 L126.830106,21.4670281 L126.731667,21.0463209 Z M19.2506467,92.5018967 L0.0686858704,21.9235921 C-0.159548464,21.0838243 0.193988355,20.1942093 0.936385356,19.7401746 L5.92580186,16.6887504 L27.0830409,2.12523241 C27.4095513,1.90048007 27.7965993,1.78014493 28.1929862,1.78014493 L152.938705,1.78014493 C153.445964,1.78014493 153.933417,1.97705064 154.298356,2.32937321 L172.332958,19.7404981 C172.714859,20.1091967 172.930652,20.6171833 172.930874,21.1480197 L172.930983,21.4093657 C172.931089,21.6630116 172.88295,21.9054066 172.795239,22.1278755 L161.293021,91.4801826 C161.13708,92.4204255 160.326639,93.1117101 159.373569,93.1174234 L158.314096,93.1237746 L157.838317,94.8075081 C157.600076,95.6506185 156.830639,96.2327616 155.954515,96.2327616 L23.1804818,96.2327616 C22.3151489,96.2327616 21.5524822,95.6646143 21.3048096,94.8354827 L21.0383498,93.9434573 C20.1980551,93.9002505 19.4735409,93.3220159 19.2506467,92.5018967 Z" id="sample-pull-request"></path>
        </g>
    </g>
</svg>