<?xml version="1.0" encoding="UTF-8"?>
<svg width="20px" height="20px" viewBox="0 0 20 20" version="1.1" xmlns="http://www.w3.org/2000/svg" xmlns:xlink="http://www.w3.org/1999/xlink">
    <!-- Generator: Sketch 53 (72520) - https://sketchapp.com -->
    <title>Shape</title>
    <desc>Created with Sketch.</desc>
    <g id="Page-1" stroke="none" stroke-width="1" fill="none" fill-rule="evenodd">
        <g id="Report:-ABath" transform="translate(-1242.000000, -467.000000)" fill="#000000" fill-rule="nonzero">
            <g id="Body" transform="translate(71.000000, 82.000000)">
                <g id="table" transform="translate(20.000000, 336.000000)">
                    <g id="detail" transform="translate(8.000000, 48.000000)">
                        <path d="M1153,21 C1147.47715,21 1143,16.5228475 1143,11 C1143,5.4771525 1147.47715,1 1153,1 C1158.52285,1 1163,5.4771525 1163,11 C1163,16.5228475 1158.52285,21 1153,21 Z M1153,19.313253 C1157.59128,19.313253 1161.31325,15.5912829 1161.31325,11 C1161.31325,6.40871714 1157.59128,2.68674699 1153,2.68674699 C1148.40872,2.68674699 1144.68675,6.40871714 1144.68675,11 C1144.68675,15.5912829 1148.40872,19.313253 1153,19.313253 Z M1158.66265,12.3253012 C1158.66265,12.3403614 1158.66265,12.3629518 1158.65516,12.378012 C1158.01806,15.0436747 1155.82945,16.9036145 1153.06371,16.9036145 C1151.60214,16.9036145 1150.18554,16.3237952 1149.12122,15.3072289 L1148.15433,16.2786145 C1148.06439,16.3689759 1147.94446,16.4216867 1147.81704,16.4216867 C1147.55471,16.4216867 1147.33735,16.2033133 1147.33735,15.939759 L1147.33735,12.5662651 C1147.33735,12.3027108 1147.55471,12.0843373 1147.81704,12.0843373 L1151.17491,12.0843373 C1151.43724,12.0843373 1151.65461,12.3027108 1151.65461,12.5662651 C1151.65461,12.6942771 1151.60214,12.814759 1151.5122,12.9051205 L1150.48535,13.936747 C1151.1899,14.5993976 1152.12681,14.9759036 1153.09369,14.9759036 C1154.42784,14.9759036 1155.66456,14.2831325 1156.36161,13.1385542 C1156.5415,12.8448795 1156.63144,12.5587349 1156.75886,12.2575301 C1156.79634,12.1521084 1156.87129,12.0843373 1156.98372,12.0843373 L1158.4228,12.0843373 C1158.55772,12.0843373 1158.66265,12.1972892 1158.66265,12.3253012 Z M1158.66265,6.30120482 L1158.66265,9.6746988 C1158.66265,9.93825301 1158.44629,10.1566265 1158.18517,10.1566265 L1154.84279,10.1566265 C1154.58166,10.1566265 1154.3653,9.93825301 1154.3653,9.6746988 C1154.3653,9.54668675 1154.41753,9.42620482 1154.50706,9.33584337 L1155.53663,8.29668675 C1154.82786,7.63403614 1153.89528,7.26506024 1152.93285,7.26506024 C1151.60485,7.26506024 1150.37384,7.95783133 1149.68,9.10240964 C1149.50094,9.39608434 1149.41142,9.68222892 1149.28458,9.98343373 C1149.24728,10.0888554 1149.17267,10.1566265 1149.06076,10.1566265 L1147.57609,10.1566265 C1147.4418,10.1566265 1147.33735,10.0436747 1147.33735,9.91566265 L1147.33735,9.86295181 C1147.97897,7.18975904 1150.17987,5.3373494 1152.93285,5.3373494 C1154.39515,5.3373494 1155.82013,5.9246988 1156.87955,6.93373494 L1157.84944,5.9623494 C1157.93897,5.87198795 1158.05834,5.81927711 1158.18517,5.81927711 C1158.44629,5.81927711 1158.66265,6.0376506 1158.66265,6.30120482 Z" id="Shape"></path>
                    </g>
                </g>
            </g>
        </g>
    </g>
</svg>