<?xml version="1.0" encoding="UTF-8"?>
<svg width="42px" height="42px" viewBox="0 0 42 42" version="1.1" xmlns="http://www.w3.org/2000/svg" xmlns:xlink="http://www.w3.org/1999/xlink">
    <!-- Generator: Sketch 53.2 (72643) - https://sketchapp.com -->
    <title>reset</title>
    <desc>Created with Sketch.</desc>
    <g id="Page-1" stroke="none" stroke-width="1" fill="none" fill-rule="evenodd">
        <g id="Cancel" transform="translate(-1288.000000, -366.000000)">
            <g id="Body" transform="translate(71.000000, 82.000000)">
                <g id="reset" transform="translate(1217.000000, 284.000000)">
                    <path d="M2.24,0 L39.76,0 C40.9971178,-2.2725486e-16 42,1.00288216 42,2.24 L42,39.76 C42,40.9971178 40.9971178,42 39.76,42 L2.24,42 C1.00288216,42 1.5150324e-16,40.9971178 0,39.76 L0,2.24 C-1.5150324e-16,1.00288216 1.00288216,2.2725486e-16 2.24,0 Z" id="Rectangle" fill="#F2F2F2" fill-rule="nonzero"></path>
                    <g id="Group-2" transform="translate(7.747573, 4.819672)">
                        <g id="Group" fill-rule="nonzero">
                            <ellipse id="Oval" fill="#FF6C0C" cx="13.2524272" cy="13.4262295" rx="13.2524272" ry="13.4262295"></ellipse>
                            <path d="M18.5683658,8.0264029 L21.0411484,5.64590164 L21.0411484,12.6911757 L14.0828277,12.6911757 L17.2918733,9.47837169 C16.2537082,8.38897699 14.7971824,7.71147541 13.184466,7.71147541 C10.0316172,7.71147541 7.47572816,10.3008843 7.47572816,13.495082 C7.47572816,16.6892797 10.0316172,19.2786885 13.184466,19.2786885 C15.6700863,19.2786885 17.7846771,17.6692889 18.5683658,15.4229508 L20.6966199,15.4229508 C19.8484325,18.8258098 16.8067501,21.3442623 13.184466,21.3442623 C8.90559971,21.3442623 5.4368932,17.8300646 5.4368932,13.495082 C5.4368932,9.16009937 8.90559971,5.64590164 13.184466,5.64590164 C15.364539,5.64590164 17.3343042,6.55814522 18.7421435,8.0264029 L18.5683658,8.0264029 Z" id="Combined-Shape" fill="#FFFFFF"></path>
                        </g>
                        <path d="M7.16078125,31.4234375 L7.8465625,31.4234375 C8.24250198,31.4234375 8.5328897,31.3474226 8.71773437,31.1953906 C8.90257905,31.0433586 8.995,30.8065641 8.995,30.485 C8.995,30.176561 8.91296957,29.9523444 8.74890625,29.8123437 C8.58484293,29.672343 8.32015808,29.6023437 7.95484375,29.6023437 L7.16078125,29.6023437 L7.16078125,31.4234375 Z M6.60953125,34.16 L6.60953125,29.106875 L8.02703125,29.106875 C8.54984636,29.106875 8.93812373,29.2135146 9.191875,29.4267969 C9.44562627,29.6400792 9.5725,29.9654666 9.5725,30.4029687 C9.5725,30.7420329 9.49593827,31.0127334 9.3428125,31.2150781 C9.18968673,31.4174229 8.9534391,31.5590621 8.6340625,31.64 C8.9140639,31.6640626 9.1240618,31.754843 9.2640625,31.9123437 C9.4040632,32.0698445 9.48937485,32.3137483 9.52,32.6440625 C9.53093755,32.7665631 9.54296868,32.9360927 9.55609375,33.1526562 C9.59109392,33.703909 9.67968679,34.0396869 9.821875,34.16 L9.12296875,34.16 C9.0529684,34.0440619 9.0081251,33.7695334 8.9884375,33.3364062 C8.97749995,33.1198427 8.96656255,32.9481256 8.955625,32.82125 C8.92499985,32.4734358 8.83476637,32.2355475 8.68492187,32.1075781 C8.53507738,31.9796087 8.26656444,31.915625 7.879375,31.915625 L7.16078125,31.915625 L7.16078125,34.16 L6.60953125,34.16 Z M10.924375,31.863125 L12.2073437,31.863125 L12.2073437,31.7614062 C12.2073437,31.413592 12.1564849,31.1516415 12.0547656,30.9755469 C11.9530464,30.7994522 11.8004698,30.7114062 11.5970312,30.7114062 C11.3695301,30.7114062 11.2005474,30.8060147 11.0900781,30.9952344 C10.9796088,31.1844541 10.924375,31.4737481 10.924375,31.863125 Z M12.2139062,32.8835937 L12.7323437,32.8835937 C12.7279687,33.329846 12.6257041,33.6710926 12.4255469,33.9073437 C12.2253896,34.1435949 11.9404706,34.2617187 11.5707812,34.2617187 C11.1639042,34.2617187 10.8636728,34.1031266 10.6700781,33.7859375 C10.4764834,33.4687484 10.3796875,32.9776596 10.3796875,32.3126562 C10.3796875,31.6082777 10.4764834,31.0925798 10.6700781,30.7655469 C10.8636728,30.438514 11.1682792,30.275 11.5839062,30.275 C11.9754707,30.275 12.2669522,30.4139049 12.4583594,30.6917187 C12.6497666,30.9695326 12.7454687,31.3928097 12.7454687,31.9615625 C12.7454687,32.0512504 12.7449219,32.1190623 12.7438281,32.165 C12.7427344,32.2109377 12.7410938,32.2524998 12.7389062,32.2896875 L10.924375,32.2929687 L10.924375,32.4603125 C10.924375,32.9328149 10.979062,33.2773427 11.0884375,33.4939062 C11.197813,33.7104698 11.3717176,33.81875 11.6101562,33.81875 C11.7960947,33.81875 11.9432026,33.7372664 12.0514844,33.5742969 C12.1597662,33.4113273 12.2139062,33.1898451 12.2139062,32.9098437 L12.2139062,32.8835937 Z M13.3426562,33.0246875 L13.8676562,33.0246875 C13.8676562,33.0290625 13.8665625,33.035625 13.864375,33.044375 C13.8578125,33.0925002 13.8545312,33.1285936 13.8545312,33.1526562 C13.8545312,33.3582823 13.9130463,33.514687 14.0300781,33.621875 C14.14711,33.729063 14.3171864,33.7826562 14.5403125,33.7826562 C14.743751,33.7826562 14.9039838,33.7279693 15.0210156,33.6185937 C15.1380475,33.5092182 15.1965625,33.3604697 15.1965625,33.1723437 C15.1965625,32.8748423 14.967971,32.6473445 14.5107812,32.4898437 L14.5009375,32.4865625 C14.0415602,32.3268742 13.7440632,32.168282 13.6084375,32.0107812 C13.4728118,31.8532805 13.405,31.624689 13.405,31.325 C13.405,30.9946858 13.5017959,30.7371103 13.6953906,30.5522656 C13.8889853,30.367421 14.158592,30.275 14.5042187,30.275 C14.8717206,30.275 15.1484366,30.3635929 15.334375,30.5407812 C15.5203134,30.7179696 15.6132812,30.9793733 15.6132812,31.325 L15.6132812,31.3775 L15.11125,31.3775 C15.1003124,31.1499989 15.0489067,30.9842974 14.9570312,30.8803906 C14.8651558,30.7764839 14.721876,30.7245312 14.5271875,30.7245312 C14.3215615,30.7245312 14.1667974,30.7732026 14.0628906,30.8705469 C13.9589839,30.9678911 13.9070312,31.1128115 13.9070312,31.3053125 C13.9070312,31.3906254 13.920703,31.4671872 13.9480469,31.535 C13.9753908,31.6028128 14.0153122,31.6574998 14.0678125,31.6990625 C14.164063,31.7821879 14.3554673,31.869687 14.6420312,31.9615625 C14.795157,32.0096877 14.9132808,32.0501561 14.9964062,32.0829687 C15.2567201,32.1835943 15.4426557,32.3110149 15.5542187,32.4652344 C15.6657818,32.6194539 15.7215625,32.8234362 15.7215625,33.0771875 C15.7215625,33.4556269 15.6127355,33.7476552 15.3950781,33.9532812 C15.1774208,34.1589073 14.8673458,34.2617187 14.4648437,34.2617187 C14.0951544,34.2617187 13.8157041,34.1638291 13.6264844,33.9680469 C13.4372647,33.7722646 13.3426562,33.4840644 13.3426562,33.1034375 L13.3426562,33.0246875 Z M16.8634375,31.863125 L18.1464062,31.863125 L18.1464062,31.7614062 C18.1464062,31.413592 18.0955474,31.1516415 17.9938281,30.9755469 C17.8921089,30.7994522 17.7395323,30.7114062 17.5360937,30.7114062 C17.3085926,30.7114062 17.1396099,30.8060147 17.0291406,30.9952344 C16.9186713,31.1844541 16.8634375,31.4737481 16.8634375,31.863125 Z M18.1529687,32.8835937 L18.6714062,32.8835937 C18.6670312,33.329846 18.5647666,33.6710926 18.3646094,33.9073437 C18.1644521,34.1435949 17.8795331,34.2617187 17.5098437,34.2617187 C17.1029667,34.2617187 16.8027353,34.1031266 16.6091406,33.7859375 C16.4155459,33.4687484 16.31875,32.9776596 16.31875,32.3126562 C16.31875,31.6082777 16.4155459,31.0925798 16.6091406,30.7655469 C16.8027353,30.438514 17.1073417,30.275 17.5229687,30.275 C17.9145332,30.275 18.2060147,30.4139049 18.3974219,30.6917187 C18.5888291,30.9695326 18.6845312,31.3928097 18.6845312,31.9615625 C18.6845312,32.0512504 18.6839844,32.1190623 18.6828906,32.165 C18.6817969,32.2109377 18.6801563,32.2524998 18.6779687,32.2896875 L16.8634375,32.2929687 L16.8634375,32.4603125 C16.8634375,32.9328149 16.9181245,33.2773427 17.0275,33.4939062 C17.1368755,33.7104698 17.3107801,33.81875 17.5492187,33.81875 C17.7351572,33.81875 17.8822651,33.7372664 17.9905469,33.5742969 C18.0988287,33.4113273 18.1529687,33.1898451 18.1529687,32.9098437 L18.1529687,32.8835937 Z M19.9871875,33.3790625 C19.9871875,33.5365633 20.0156247,33.6399216 20.0725,33.6891406 C20.1293753,33.7383596 20.2649989,33.7629687 20.479375,33.7629687 C20.5078126,33.7629687 20.531328,33.7624219 20.5499219,33.7613281 C20.5685157,33.7602344 20.5843749,33.7585938 20.5975,33.7564062 L20.6007812,34.2190625 C20.5679686,34.22125 20.524219,34.2234375 20.4695312,34.225625 C20.3339056,34.2321875 20.2475002,34.2354687 20.2103125,34.2354687 C19.9609363,34.2354687 19.7755475,34.1857036 19.6541406,34.0861719 C19.5327338,33.9866401 19.4720312,33.836251 19.4720312,33.635 L19.4720312,30.8196875 L18.9470312,30.8196875 L18.9470312,30.3832812 L19.4720312,30.3832812 L19.4720312,29.3759375 L19.9871875,29.3759375 L19.9871875,30.3832812 L20.6007812,30.3832812 L20.6007812,30.8196875 L19.9871875,30.8196875 L19.9871875,33.3790625 Z" id="Reset" fill="#333E4B"></path>
                    </g>
                </g>
            </g>
        </g>
    </g>
</svg>