<?xml version="1.0" encoding="UTF-8"?>
<svg width="25px" height="24px" viewBox="0 0 25 24" version="1.1" xmlns="http://www.w3.org/2000/svg" xmlns:xlink="http://www.w3.org/1999/xlink">
    <!-- Generator: Sketch 53 (72520) - https://sketchapp.com -->
    <title>Shape</title>
    <desc>Created with Sketch.</desc>
    <g id="Critical" stroke="none" stroke-width="1" fill="none" fill-rule="evenodd">
        <g id="Communication:-ID-Detail-2" transform="translate(-1211.000000, -194.000000)" fill="#77BC1F" fill-rule="nonzero">
            <path d="M1223.75,194 C1217.123,194 1211.75,199.373 1211.75,206 C1211.75,212.627 1217.123,218 1223.75,218 C1230.377,218 1235.75,212.627 1235.75,206 C1235.75,199.373 1230.377,194 1223.75,194 Z M1229.309,202.6805 L1223.561,211.466 C1223.5595,211.4675 1223.5565,211.469 1223.5565,211.4705 C1223.5265,211.5155 1223.51,211.5665 1223.4725,211.6085 C1223.42,211.6655 1223.3525,211.6955 1223.2925,211.739 C1223.2775,211.7495 1223.2625,211.7615 1223.246,211.772 C1223.153,211.8305 1223.057,211.8695 1222.952,211.895 C1222.9175,211.904 1222.886,211.913 1222.85,211.919 C1222.76645,211.930491 1222.6818,211.931499 1222.598,211.922 C1222.53881,211.918259 1222.48008,211.909223 1222.4225,211.895 C1222.36309,211.877087 1222.30537,211.853999 1222.25,211.826 C1222.202,211.8035 1222.151,211.7975 1222.106,211.769 C1222.073,211.748 1222.055,211.715 1222.0265,211.6895 C1222.0145,211.679 1221.9995,211.676 1221.9875,211.6655 L1218.641,208.571 C1218.22835,208.174775 1218.20883,207.521135 1218.5971,207.10099 C1218.98536,206.680846 1219.63851,206.648835 1220.066,207.029 L1222.4885,209.27 L1227.551,201.5315 C1227.75625,201.217464 1228.11344,201.036781 1228.48803,201.057514 C1228.86262,201.078246 1229.19769,201.297245 1229.36703,201.632014 C1229.53637,201.966783 1229.51425,202.366464 1229.309,202.6805 Z" id="Shape"></path>
        </g>
    </g>
</svg>