<?xml version="1.0" encoding="UTF-8"?>
<svg width="14px" height="14px" viewBox="0 0 14 14" version="1.1" xmlns="http://www.w3.org/2000/svg" xmlns:xlink="http://www.w3.org/1999/xlink">
    <!-- Generator: Sketch 52.6 (67491) - http://www.bohemiancoding.com/sketch -->
    <title>Layer_1</title>
    <desc>Created with Sketch.</desc>
    <g id="Page-1" stroke="none" stroke-width="1" fill="none" fill-rule="evenodd">
        <g id="Desk-Order:-Detail-Unit-SI" transform="translate(-633.000000, -352.000000)" fill-rule="nonzero">
            <g id="Modal-2" transform="translate(57.000000, 48.000000)">
                <g id="Modal">
                    <g id="table" transform="translate(15.000000, 295.000000)">
                        <g id="table_head">
                            <g id="Unit-Type" transform="translate(503.000000, 8.000000)">
                                <g id="Layer_1" transform="translate(58.000000, 1.000000)">
                                    <polygon id="Shape" fill="#333E4B" points="0 0 14 0 14 14 0 14"></polygon>
                                    <polygon id="Shape" fill="#E64B3F" points="7.13985417 7.07885417 6.97535417 6.97535417 7.14435417 7.14435417"></polygon>
                                    <polygon id="Shape" fill="#E64B3F" points="7.13985417 7.07885417 6.97535417 6.97535417 7.14435417 7.14435417"></polygon>
                                    <path d="M7.29239583,9.89041667 C7.21185431,9.89041667 7.1465625,9.82512486 7.1465625,9.74458333 C7.1465625,9.66404181 7.21185431,9.59875 7.29239583,9.59875 L8.16666667,9.59875 L8.16666667,8.67066667 L7.29239583,8.67066667 C7.21185431,8.67066667 7.1465625,8.60537486 7.1465625,8.52483333 C7.1465625,8.44429181 7.21185431,8.379 7.29239583,8.379 L8.16666667,8.379 L8.16666667,7.4510625 L7.29239583,7.4510625 C7.21185431,7.4510625 7.1465625,7.38577069 7.1465625,7.30522917 C7.1465625,7.22468764 7.21185431,7.15939583 7.29239583,7.15939583 L8.16666667,7.15939583 L8.16666667,6.2313125 L7.29239583,6.2313125 C7.21185431,6.2313125 7.1465625,6.16602069 7.1465625,6.08547917 C7.1465625,6.00493764 7.21185431,5.93964583 7.29239583,5.93964583 L8.16666667,5.93964583 L8.16666667,5.0115625 L7.29239583,5.0115625 C7.21185431,5.0115625 7.1465625,4.94627069 7.1465625,4.86572917 C7.1465625,4.78518764 7.21185431,4.71989583 7.29239583,4.71989583 L8.16666667,4.71989583 L8.16666667,3.64583333 C8.16666667,3.565625 8.1025,3.5 8.02083333,3.5 L5.97916667,3.5 C5.89895833,3.5 5.83333333,3.565625 5.83333333,3.64583333 L5.83333333,4.11002083 L6.41739583,4.11002083 C6.49793736,4.11002083 6.56322917,4.17531264 6.56322917,4.25585417 C6.56322917,4.33639569 6.49793736,4.4016875 6.41739583,4.4016875 L5.83333333,4.4016875 L5.83333333,4.71989583 L6.56322917,4.71989583 C6.64377069,4.71989583 6.7090625,4.78518764 6.7090625,4.86572917 C6.7090625,4.94627069 6.64377069,5.0115625 6.56322917,5.0115625 L5.83333333,5.0115625 L5.83333333,5.32977083 L6.41739583,5.32977083 C6.49793736,5.32977083 6.56322917,5.39506264 6.56322917,5.47560417 C6.56322917,5.55614569 6.49793736,5.6214375 6.41739583,5.6214375 L5.83333333,5.6214375 L5.83333333,5.93964583 L6.56322917,5.93964583 C6.64377069,5.93964583 6.7090625,6.00493764 6.7090625,6.08547917 C6.7090625,6.16602069 6.64377069,6.2313125 6.56322917,6.2313125 L5.83333333,6.2313125 L5.83333333,6.54952083 L6.41739583,6.54952083 C6.49793736,6.54952083 6.56322917,6.61481264 6.56322917,6.69535417 C6.56322917,6.77589569 6.49793736,6.8411875 6.41739583,6.8411875 L5.83333333,6.8411875 L5.83333333,7.15939583 L6.56322917,7.15939583 C6.64377069,7.15939583 6.7090625,7.22468764 6.7090625,7.30522917 C6.7090625,7.38577069 6.64377069,7.4510625 6.56322917,7.4510625 L5.83333333,7.4510625 L5.83333333,7.76927083 L6.41739583,7.76927083 C6.49793736,7.76927083 6.56322917,7.83456264 6.56322917,7.91510417 C6.56322917,7.99564569 6.49793736,8.0609375 6.41739583,8.0609375 L5.83333333,8.0609375 L5.83333333,8.379 L6.56322917,8.379 C6.64377069,8.379 6.7090625,8.44429181 6.7090625,8.52483333 C6.7090625,8.60537486 6.64377069,8.67066667 6.56322917,8.67066667 L5.83333333,8.67066667 L5.83333333,8.98902083 L6.41739583,8.98902083 C6.49793736,8.98902083 6.56322917,9.05431264 6.56322917,9.13485417 C6.56322917,9.21539569 6.49793736,9.2806875 6.41739583,9.2806875 L5.83333333,9.2806875 L5.83333333,9.59875 L6.56322917,9.59875 C6.64377069,9.59875 6.7090625,9.66404181 6.7090625,9.74458333 C6.7090625,9.82512486 6.64377069,9.89041667 6.56322917,9.89041667 L5.83333333,9.89041667 L5.83333333,10.3541667 C5.83333333,10.434375 5.89895833,10.5 5.97916667,10.5 L8.02083333,10.5 C8.1025,10.5 8.16666667,10.434375 8.16666667,10.3541667 L8.16666667,9.89041667 L7.29239583,9.89041667 Z" id="Shape" fill="#FFFFFF"></path>
                                </g>
                            </g>
                        </g>
                    </g>
                </g>
            </g>
        </g>
    </g>
</svg>