<?xml version="1.0" encoding="UTF-8"?>
<svg width="124px" height="75px" viewBox="0 0 124 75" version="1.1" xmlns="http://www.w3.org/2000/svg" xmlns:xlink="http://www.w3.org/1999/xlink">
    <!-- Generator: Sketch 53.2 (72643) - https://sketchapp.com -->
    <title>User info</title>
    <desc>Created with Sketch.</desc>
    <g id="Page-1" stroke="none" stroke-width="1" fill="none" fill-rule="evenodd">
        <path d="M115.037594,63.7218045 L115.037594,11.2781955 C115.037594,9.72100165 113.775239,8.45864662 112.218045,8.45864662 L85.7142857,8.45864662 L85.7142857,66.5413534 L112.218045,66.5413534 C113.775239,66.5413534 115.037594,65.2789984 115.037594,63.7218045 Z M80.075188,42.2932331 L80.075188,8.45864662 L11.2781955,8.45864662 C9.72100165,8.45864662 8.45864662,9.72100165 8.45864662,11.2781955 L8.45864662,42.2932331 L80.075188,42.2932331 Z M80.075188,66.5413534 L80.075188,46.8045113 L8.45864662,46.8045113 L8.45864662,63.7218045 C8.45864662,65.2789984 9.72100165,66.5413534 11.2781955,66.5413534 L80.075188,66.5413534 Z M111.324736,0 C114.689234,0 117.558909,0.935619386 119.933849,2.80688623 C122.308789,4.67815307 123.496241,6.88621482 123.496241,9.43113772 L123.496241,65.5688623 C123.496241,68.1137852 122.308789,70.3218469 119.933849,72.1931138 C117.558909,74.0643806 114.689234,75 111.324736,75 L12.1715045,75 C8.80700675,75 5.93733113,74.0643806 3.56239156,72.1931138 C1.18745198,70.3218469 0,68.1137852 0,65.5688623 L0,9.43113772 C0,6.88621482 1.18745198,4.67815307 3.56239156,2.80688623 C5.93733113,0.935619386 8.80700675,0 12.1715045,0 L111.324736,0 Z M40.8834586,19.7368421 L47.6503759,19.7368421 L47.6503759,40.037594 L40.8834586,40.037594 L40.8834586,19.7368421 Z M50.5639098,31.0150376 L57.3308271,31.0150376 L57.3308271,40.037594 L50.5639098,40.037594 L50.5639098,31.0150376 Z M60.2443609,25.9398496 L67.0112782,25.9398496 L67.0112782,40.037594 L60.2443609,40.037594 L60.2443609,25.9398496 Z M69.924812,25.9398496 L76.6917293,25.9398496 L76.6917293,40.037594 L69.924812,40.037594 L69.924812,25.9398496 Z M31.2030075,11.8421053 L37.9699248,11.8421053 L37.9699248,40.037594 L31.2030075,40.037594 L31.2030075,11.8421053 Z M11.8421053,17.481203 L18.6090226,17.481203 L18.6090226,40.037594 L11.8421053,40.037594 L11.8421053,17.481203 Z M21.5225564,22.556391 L28.2894737,22.556391 L28.2894737,40.037594 L21.5225564,40.037594 L21.5225564,22.556391 Z M23.7781955,37.7819549 L26.0338346,37.7819549 L26.0338346,24.8120301 L23.7781955,24.8120301 L23.7781955,37.7819549 Z M11.8421053,52.0676692 L11.8421053,49.8120301 L40.8834586,49.8120301 L40.8834586,52.0676692 L11.8421053,52.0676692 Z M11.8421053,57.424812 L11.8421053,55.1691729 L40.8834586,55.1691729 L40.8834586,57.424812 L11.8421053,57.424812 Z M11.8421053,62.7819549 L11.8421053,60.5263158 L40.8834586,60.5263158 L40.8834586,62.7819549 L11.8421053,62.7819549 Z M47.3684211,52.0676692 L47.3684211,49.8120301 L76.4097744,49.8120301 L76.4097744,52.0676692 L47.3684211,52.0676692 Z M47.3684211,57.424812 L47.3684211,55.1691729 L76.4097744,55.1691729 L76.4097744,57.424812 L47.3684211,57.424812 Z M47.3684211,62.7819549 L47.3684211,60.5263158 L76.4097744,60.5263158 L76.4097744,62.7819549 L47.3684211,62.7819549 Z M100.93985,11.8421053 C107.791503,11.8421053 113.345865,17.3964674 113.345865,24.2481203 L100.93985,24.2481203 L100.93985,11.8421053 Z M100.009729,12.971456 L100.009729,25.5728607 L112.218045,25.5728607 C112.112831,32.3337008 106.599106,37.7819549 99.8127957,37.7819549 C92.96072,37.7819549 87.406015,32.2275928 87.406015,25.3759398 C87.406015,18.5242869 92.96072,12.9699248 99.8127957,12.9699248 C99.8785608,12.9699248 99.9442064,12.9704365 100.009729,12.971456 Z M89.0977444,25.3327876 C89.0977444,31.2739566 93.9268338,36.0902256 99.8838176,36.0902256 C105.234272,36.0902256 109.683733,32.2013215 110.526316,27.0930957 L100.079928,27.0930957 C99.2134577,27.0930957 98.5110446,26.3925474 98.5110446,25.5283774 L98.5110446,14.6616541 C93.2022671,15.3342024 89.0977444,19.8554362 89.0977444,25.3327876 Z M91.9172932,44.8308271 L91.9172932,42.575188 L111.654135,42.575188 L111.654135,44.8308271 L91.9172932,44.8308271 Z M88.8157895,50.9398496 C88.0371926,50.9398496 87.406015,50.3086721 87.406015,49.5300752 C87.406015,48.7514783 88.0371926,48.1203008 88.8157895,48.1203008 C89.5943864,48.1203008 90.2255639,48.7514783 90.2255639,49.5300752 C90.2255639,50.3086721 89.5943864,50.9398496 88.8157895,50.9398496 Z M91.9172932,50.6578947 L91.9172932,48.4022556 L111.654135,48.4022556 L111.654135,50.6578947 L91.9172932,50.6578947 Z M88.8157895,56.7669173 C88.0371926,56.7669173 87.406015,56.1357398 87.406015,55.3571429 C87.406015,54.5785459 88.0371926,53.9473684 88.8157895,53.9473684 C89.5943864,53.9473684 90.2255639,54.5785459 90.2255639,55.3571429 C90.2255639,56.1357398 89.5943864,56.7669173 88.8157895,56.7669173 Z M91.9172932,56.4849624 L91.9172932,54.2293233 L111.654135,54.2293233 L111.654135,56.4849624 L91.9172932,56.4849624 Z M88.8157895,62.593985 C88.0371926,62.593985 87.406015,61.9628074 87.406015,61.1842105 C87.406015,60.4056136 88.0371926,59.7744361 88.8157895,59.7744361 C89.5943864,59.7744361 90.2255639,60.4056136 90.2255639,61.1842105 C90.2255639,61.9628074 89.5943864,62.593985 88.8157895,62.593985 Z M91.9172932,62.3120301 L91.9172932,60.056391 L111.654135,60.056391 L111.654135,62.3120301 L91.9172932,62.3120301 Z M88.8157895,45.112782 C88.0371926,45.112782 87.406015,44.4816044 87.406015,43.7030075 C87.406015,42.9244106 88.0371926,42.2932331 88.8157895,42.2932331 C89.5943864,42.2932331 90.2255639,42.9244106 90.2255639,43.7030075 C90.2255639,44.4816044 89.5943864,45.112782 88.8157895,45.112782 Z" id="study-dashboard" fill="#000000"></path>
    </g>
</svg>