
<?xml version="1.0" encoding="UTF-8"?>
<svg width="70px" height="75px" viewBox="0 0 70 75" version="1.1" xmlns="http://www.w3.org/2000/svg" xmlns:xlink="http://www.w3.org/1999/xlink">
    <!-- Generator: Sketch 53.2 (72643) - https://sketchapp.com -->
    <title>sample_management</title>
    <desc>Created with Sketch.</desc>
    <g id="Page-1" stroke="none" stroke-width="1" fill="none" fill-rule="evenodd">
        <g id="sample_management" transform="translate(-4.000000, 0.000000)" fill-rule="nonzero">
            <g id="Group-5" transform="translate(36.968163, 38.383805) scale(-1, 1) rotate(-43.000000) translate(-36.968163, -38.383805) translate(26.531416, -4.290894)" fill="#000000">
                <path d="M1.44487029,73.2305335 C2.80932082,72.4645974 4.08029766,71.4772892 5.20422406,70.2704821 C6.86471293,68.4875454 8.02548813,66.4174324 8.69258298,64.2331353 C8.70073644,64.2339705 8.70901034,64.2343985 8.71738407,64.2343985 C8.85038071,64.2343985 8.95819579,64.1264453 8.95819579,63.9932784 C8.95819579,63.8985384 8.90362592,63.8165602 8.82424162,63.7771374 C9.72441747,60.470131 9.5093279,56.9320777 8.19948479,53.7511129 C8.75517231,53.4364204 9.27293127,53.0325417 9.73144,52.5402216 C12.1441528,49.9495904 12.0026076,45.8910738 9.41528984,43.4752712 C7.18456292,41.3924206 3.86407919,41.2107092 1.44487029,42.8605195 L1.44487029,3.27626855 C0.638562378,3.22648242 0,2.55594124 0,1.73606482 L0,1.54316873 C0,0.690900175 0.690016493,0 1.54119497,0 L19.2649372,0 C20.1161157,0 20.8061321,0.690900175 20.8061321,1.54316873 L20.8061321,1.73606482 C20.8061321,2.58833338 20.1161157,3.27923356 19.2649372,3.27923356 L19.1686125,3.27923356 L19.1686125,78.2878638 C18.2547822,82.7431068 15.2951811,84.9707283 10.2898093,84.9707283 C5.28443749,84.9707283 2.33612448,82.7431068 1.44487029,78.2878638 L1.44487029,73.2305335 Z M0.907524875,0.88172818 C1.0657517,1.05134415 1.29110658,1.15737655 1.54119497,1.15737655 L19.2649372,1.15737655 C19.4714576,1.15737655 19.6611115,1.08507002 19.8100253,0.964361157 C19.8008423,0.897493029 19.7815688,0.837880684 19.7522046,0.785524123 C19.6667533,0.633163524 19.4991571,0.548143567 19.2494161,0.530464252 L1.37582505,0.530464252 C1.10510873,0.538053954 0.95152855,0.623073911 0.915084516,0.785524123 C0.908290755,0.815807485 0.905770875,0.847875504 0.907524875,0.88172818 Z M2.11914309,18.0121967 L18.4943399,29.1508978 L18.4943399,3.3756816 L2.11914309,3.3756816 L2.11914309,18.0121967 Z M8.73468912,72.7698325 C8.69455093,72.8051832 8.66922173,72.8569911 8.66922173,72.9147226 C8.66922173,73.0212562 8.75547379,73.1076187 8.8618711,73.1076187 C8.96826841,73.1076187 9.05452047,73.0212562 9.05452047,72.9147226 C9.05452047,72.8330295 9.00380187,72.7631975 8.93217335,72.7350736 C9.19925319,72.6452685 9.39165687,72.3925893 9.39165687,72.0949142 C9.39165687,71.7220467 9.08977466,71.4197779 8.71738407,71.4197779 C8.34499349,71.4197779 8.04311127,71.7220467 8.04311127,72.0949142 C8.04311127,72.4677817 8.34499349,72.7700505 8.71738407,72.7700505 C8.72316973,72.7700505 8.72893837,72.7699776 8.73468912,72.7698325 Z M5.63499412,28.3075014 C6.16698067,28.3075014 6.59824098,27.8756888 6.59824098,27.343021 C6.59824098,26.8103531 6.16698067,26.3785405 5.63499412,26.3785405 C5.10300757,26.3785405 4.67174726,26.8103531 4.67174726,27.343021 C4.67174726,27.8756888 5.10300757,28.3075014 5.63499412,28.3075014 Z M5.63499412,28.0181573 C5.26260354,28.0181573 4.96072132,27.7158885 4.96072132,27.343021 C4.96072132,26.9701535 5.26260354,26.6678847 5.63499412,26.6678847 C6.00738471,26.6678847 6.30926692,26.9701535 6.30926692,27.343021 C6.30926692,27.7158885 6.00738471,28.0181573 5.63499412,28.0181573 Z M9.63246859,31.2491668 C9.95166052,31.2491668 10.2104167,30.9900793 10.2104167,30.6704786 C10.2104167,30.3508778 9.95166052,30.0917903 9.63246859,30.0917903 C9.31327666,30.0917903 9.05452047,30.3508778 9.05452047,30.6704786 C9.05452047,30.9900793 9.31327666,31.2491668 9.63246859,31.2491668 Z M9.63246859,31.0562707 C9.41967397,31.0562707 9.24716984,30.8835457 9.24716984,30.6704786 C9.24716984,30.4574114 9.41967397,30.2846864 9.63246859,30.2846864 C9.84526321,30.2846864 10.0177673,30.4574114 10.0177673,30.6704786 C10.0177673,30.8835457 9.84526321,31.0562707 9.63246859,31.0562707 Z M10.0177673,39.6883708 C10.4699559,39.6883708 10.8365272,39.3213301 10.8365272,38.8685624 C10.8365272,38.4157948 10.4699559,38.0487541 10.0177673,38.0487541 C9.56557876,38.0487541 9.1990075,38.4157948 9.1990075,38.8685624 C9.1990075,39.3213301 9.56557876,39.6883708 10.0177673,39.6883708 Z M10.0177673,39.3990267 C9.72517473,39.3990267 9.48798156,39.1615298 9.48798156,38.8685624 C9.48798156,38.5755951 9.72517473,38.3380982 10.0177673,38.3380982 C10.3103599,38.3380982 10.5475531,38.5755951 10.5475531,38.8685624 C10.5475531,39.1615298 10.3103599,39.3990267 10.0177673,39.3990267 Z M13.2928066,41.2797636 C13.8247932,41.2797636 14.2560535,40.847951 14.2560535,40.3152831 C14.2560535,39.7826153 13.8247932,39.3508027 13.2928066,39.3508027 C12.7608201,39.3508027 12.3295598,39.7826153 12.3295598,40.3152831 C12.3295598,40.847951 12.7608201,41.2797636 13.2928066,41.2797636 Z M13.2928066,40.8939714 C12.9736147,40.8939714 12.7148585,40.6348838 12.7148585,40.3152831 C12.7148585,39.9956824 12.9736147,39.7365949 13.2928066,39.7365949 C13.6119986,39.7365949 13.8707548,39.9956824 13.8707548,40.3152831 C13.8707548,40.6348838 13.6119986,40.8939714 13.2928066,40.8939714 Z M13.0038326,45.3305815 C13.5358191,45.3305815 13.9670795,44.8987689 13.9670795,44.3661011 C13.9670795,43.8334332 13.5358191,43.4016206 13.0038326,43.4016206 C12.471846,43.4016206 12.0405857,43.8334332 12.0405857,44.3661011 C12.0405857,44.8987689 12.471846,45.3305815 13.0038326,45.3305815 Z M13.0038326,44.9447893 C12.6846407,44.9447893 12.4258845,44.6857018 12.4258845,44.3661011 C12.4258845,44.0465003 12.6846407,43.7874128 13.0038326,43.7874128 C13.3230245,43.7874128 13.5817807,44.0465003 13.5817807,44.3661011 C13.5817807,44.6857018 13.3230245,44.9447893 13.0038326,44.9447893 Z M10.4512284,53.3357693 C10.6906224,53.3357693 10.8846895,53.1414536 10.8846895,52.9017531 C10.8846895,52.6620526 10.6906224,52.4677369 10.4512284,52.4677369 C10.2118345,52.4677369 10.0177673,52.6620526 10.0177673,52.9017531 C10.0177673,53.1414536 10.2118345,53.3357693 10.4512284,53.3357693 Z M11.2699882,58.5439638 C11.4295842,58.5439638 11.5589623,58.41442 11.5589623,58.2546196 C11.5589623,58.0948193 11.4295842,57.9652755 11.2699882,57.9652755 C11.1103923,57.9652755 10.9810142,58.0948193 10.9810142,58.2546196 C10.9810142,58.41442 11.1103923,58.5439638 11.2699882,58.5439638 Z M12.0887481,63.6557102 C12.2217447,63.6557102 12.3295598,63.5477571 12.3295598,63.4145901 C12.3295598,63.2814231 12.2217447,63.17347 12.0887481,63.17347 C11.9557514,63.17347 11.8479364,63.2814231 11.8479364,63.4145901 C11.8479364,63.5477571 11.9557514,63.6557102 12.0887481,63.6557102 Z M12.2813974,66.2598074 C12.4143941,66.2598074 12.5222092,66.1518543 12.5222092,66.0186873 C12.5222092,65.8855204 12.4143941,65.7775672 12.2813974,65.7775672 C12.1484008,65.7775672 12.0405857,65.8855204 12.0405857,66.0186873 C12.0405857,66.1518543 12.1484008,66.2598074 12.2813974,66.2598074 Z M11.1255012,67.513632 C11.2584979,67.513632 11.3663129,67.4056789 11.3663129,67.2725119 C11.3663129,67.139345 11.2584979,67.0313918 11.1255012,67.0313918 C10.9925046,67.0313918 10.8846895,67.139345 10.8846895,67.2725119 C10.8846895,67.4056789 10.9925046,67.513632 11.1255012,67.513632 Z M9.1990075,70.5035215 C9.33200414,70.5035215 9.43981921,70.3955683 9.43981921,70.2624013 C9.43981921,70.1292344 9.33200414,70.0212812 9.1990075,70.0212812 C9.06601086,70.0212812 8.95819579,70.1292344 8.95819579,70.2624013 C8.95819579,70.3955683 9.06601086,70.5035215 9.1990075,70.5035215 Z M4.28644852,72.6253785 C4.41944516,72.6253785 4.52726024,72.5174253 4.52726024,72.3842583 C4.52726024,72.2510914 4.41944516,72.1431382 4.28644852,72.1431382 C4.15345188,72.1431382 4.04563681,72.2510914 4.04563681,72.3842583 C4.04563681,72.5174253 4.15345188,72.6253785 4.28644852,72.6253785 Z M5.34602007,75.6152679 C5.4790167,75.6152679 5.58683178,75.5073147 5.58683178,75.3741478 C5.58683178,75.2409808 5.4790167,75.1330276 5.34602007,75.1330276 C5.21302343,75.1330276 5.10520835,75.2409808 5.10520835,75.3741478 C5.10520835,75.5073147 5.21302343,75.6152679 5.34602007,75.6152679 Z M7.1761891,78.026469 C7.30918573,78.026469 7.41700081,77.9185159 7.41700081,77.7853489 C7.41700081,77.6521819 7.30918573,77.5442288 7.1761891,77.5442288 C7.04319246,77.5442288 6.93537738,77.6521819 6.93537738,77.7853489 C6.93537738,77.9185159 7.04319246,78.026469 7.1761891,78.026469 Z M10.8365272,77.5442288 C10.9695238,77.5442288 11.0773389,77.4362756 11.0773389,77.3031087 C11.0773389,77.1699417 10.9695238,77.0619886 10.8365272,77.0619886 C10.7035305,77.0619886 10.5957154,77.1699417 10.5957154,77.3031087 C10.5957154,77.4362756 10.7035305,77.5442288 10.8365272,77.5442288 Z M9.48798156,75.2294757 C9.6209782,75.2294757 9.72879327,75.1215225 9.72879327,74.9883556 C9.72879327,74.8551886 9.6209782,74.7472355 9.48798156,74.7472355 C9.35498492,74.7472355 9.24716984,74.8551886 9.24716984,74.9883556 C9.24716984,75.1215225 9.35498492,75.2294757 9.48798156,75.2294757 Z M13.1001573,78.5087093 C13.2065546,78.5087093 13.2928066,78.4223467 13.2928066,78.3158132 C13.2928066,78.2092796 13.2065546,78.1229171 13.1001573,78.1229171 C12.99376,78.1229171 12.9075079,78.2092796 12.9075079,78.3158132 C12.9075079,78.4223467 12.99376,78.5087093 13.1001573,78.5087093 Z M12.5222092,80.9199104 C12.6818051,80.9199104 12.8111832,80.7903666 12.8111832,80.6305663 C12.8111832,80.4707659 12.6818051,80.3412221 12.5222092,80.3412221 C12.3626132,80.3412221 12.2332351,80.4707659 12.2332351,80.6305663 C12.2332351,80.7903666 12.3626132,80.9199104 12.5222092,80.9199104 Z M9.82511796,80.2447741 C9.98471392,80.2447741 10.114092,80.1152303 10.114092,79.9554299 C10.114092,79.7956296 9.98471392,79.6660858 9.82511796,79.6660858 C9.66552199,79.6660858 9.5361439,79.7956296 9.5361439,79.9554299 C9.5361439,80.1152303 9.66552199,80.2447741 9.82511796,80.2447741 Z M14.0634041,80.3412221 C14.2230001,80.3412221 14.3523782,80.2116783 14.3523782,80.051878 C14.3523782,79.8920776 14.2230001,79.7625338 14.0634041,79.7625338 C13.9038082,79.7625338 13.7744301,79.8920776 13.7744301,80.051878 C13.7744301,80.2116783 13.9038082,80.3412221 14.0634041,80.3412221 Z M6.02029287,71.660898 C6.20648816,71.660898 6.35742927,71.5097636 6.35742927,71.3233298 C6.35742927,71.1368961 6.20648816,70.9857617 6.02029287,70.9857617 C5.83409757,70.9857617 5.68315647,71.1368961 5.68315647,71.3233298 C5.68315647,71.5097636 5.83409757,71.660898 6.02029287,71.660898 Z M9.39165687,65.6811192 C9.52465351,65.6811192 9.63246859,65.573166 9.63246859,65.439999 C9.63246859,65.3068321 9.52465351,65.1988789 9.39165687,65.1988789 C9.25866023,65.1988789 9.15084516,65.3068321 9.15084516,65.439999 C9.15084516,65.573166 9.25866023,65.6811192 9.39165687,65.6811192 Z M13.629943,65.9704633 C13.9757343,65.9704633 14.2560535,65.6897851 14.2560535,65.343551 C14.2560535,64.9973169 13.9757343,64.7166387 13.629943,64.7166387 C13.2841518,64.7166387 13.0038326,64.9973169 13.0038326,65.343551 C13.0038326,65.6897851 13.2841518,65.9704633 13.629943,65.9704633 Z M13.629943,65.7775672 C13.3905491,65.7775672 13.196482,65.5832515 13.196482,65.343551 C13.196482,65.1038505 13.3905491,64.9095348 13.629943,64.9095348 C13.869337,64.9095348 14.0634041,65.1038505 14.0634041,65.343551 C14.0634041,65.5832515 13.869337,65.7775672 13.629943,65.7775672 Z M14.0152418,69.3943689 C14.3876324,69.3943689 14.6895146,69.0921001 14.6895146,68.7192326 C14.6895146,68.3463651 14.3876324,68.0440963 14.0152418,68.0440963 C13.6428512,68.0440963 13.340969,68.3463651 13.340969,68.7192326 C13.340969,69.0921001 13.6428512,69.3943689 14.0152418,69.3943689 Z M14.0152418,69.1050248 C13.8024472,69.1050248 13.629943,68.9322997 13.629943,68.7192326 C13.629943,68.5061655 13.8024472,68.3334404 14.0152418,68.3334404 C14.2280364,68.3334404 14.4005405,68.5061655 14.4005405,68.7192326 C14.4005405,68.9322997 14.2280364,69.1050248 14.0152418,69.1050248 Z M7.94678658,70.1659533 C8.31917717,70.1659533 8.62105938,69.8636845 8.62105938,69.490817 C8.62105938,69.1179495 8.31917717,68.8156807 7.94678658,68.8156807 C7.574396,68.8156807 7.27251378,69.1179495 7.27251378,69.490817 C7.27251378,69.8636845 7.574396,70.1659533 7.94678658,70.1659533 Z M7.94678658,69.8766092 C7.73399196,69.8766092 7.56148784,69.7038841 7.56148784,69.490817 C7.56148784,69.2777498 7.73399196,69.1050248 7.94678658,69.1050248 C8.1595812,69.1050248 8.33208533,69.2777498 8.33208533,69.490817 C8.33208533,69.7038841 8.1595812,69.8766092 7.94678658,69.8766092 Z M8.71738407,72.4807064 C8.50458945,72.4807064 8.33208533,72.3079813 8.33208533,72.0949142 C8.33208533,71.8818471 8.50458945,71.709122 8.71738407,71.709122 C8.93017869,71.709122 9.10268281,71.8818471 9.10268281,72.0949142 C9.10268281,72.3079813 8.93017869,72.4807064 8.71738407,72.4807064 Z M14.0152418,75.6634919 C14.3876324,75.6634919 14.6895146,75.3612231 14.6895146,74.9883556 C14.6895146,74.6154881 14.3876324,74.3132193 14.0152418,74.3132193 C13.6428512,74.3132193 13.340969,74.6154881 13.340969,74.9883556 C13.340969,75.3612231 13.6428512,75.6634919 14.0152418,75.6634919 Z M14.0152418,75.3741478 C13.8024472,75.3741478 13.629943,75.2014227 13.629943,74.9883556 C13.629943,74.7752884 13.8024472,74.6025634 14.0152418,74.6025634 C14.2280364,74.6025634 14.4005405,74.7752884 14.4005405,74.9883556 C14.4005405,75.2014227 14.2280364,75.3741478 14.0152418,75.3741478 Z M9.1990075,27.1983489 C9.38520279,27.1983489 9.5361439,27.0472145 9.5361439,26.8607807 C9.5361439,26.674347 9.38520279,26.5232126 9.1990075,26.5232126 C9.01281221,26.5232126 8.8618711,26.674347 8.8618711,26.8607807 C8.8618711,27.0472145 9.01281221,27.1983489 9.1990075,27.1983489 Z M7.1761891,36.6502574 C7.30918573,36.6502574 7.41700081,36.5423042 7.41700081,36.4091373 C7.41700081,36.2759703 7.30918573,36.1680172 7.1761891,36.1680172 C7.04319246,36.1680172 6.93537738,36.2759703 6.93537738,36.4091373 C6.93537738,36.5423042 7.04319246,36.6502574 7.1761891,36.6502574 Z M3.99747446,36.3609133 C4.1304711,36.3609133 4.23828618,36.2529601 4.23828618,36.1197931 C4.23828618,35.9866262 4.1304711,35.878673 3.99747446,35.878673 C3.86447783,35.878673 3.75666275,35.9866262 3.75666275,36.1197931 C3.75666275,36.2529601 3.86447783,36.3609133 3.99747446,36.3609133 Z M6.59824098,32.0207512 C6.73123762,32.0207512 6.8390527,31.912798 6.8390527,31.7796311 C6.8390527,31.6464641 6.73123762,31.538511 6.59824098,31.538511 C6.46524434,31.538511 6.35742927,31.6464641 6.35742927,31.7796311 C6.35742927,31.912798 6.46524434,32.0207512 6.59824098,32.0207512 Z M10.5957154,26.5232126 C10.7553114,26.5232126 10.8846895,26.3936688 10.8846895,26.2338684 C10.8846895,26.0740681 10.7553114,25.9445243 10.5957154,25.9445243 C10.4361195,25.9445243 10.3067414,26.0740681 10.3067414,26.2338684 C10.3067414,26.3936688 10.4361195,26.5232126 10.5957154,26.5232126 Z" id="Combined-Shape"></path>
            </g>
            <g id="Group-6" transform="translate(24.679097, 42.210843)">
                <path d="M12.2057277,28.2663568 C12.3113604,28.2703386 12.4174951,28.2723473 12.5240964,28.2723473 C12.6583629,28.2723473 12.7918892,28.2691607 12.9246045,28.2628587 L13.0772107,28.2514249 C13.6397839,28.1519407 13.9022974,27.9662021 14.1575288,27.2069799 L14.4782753,25.8343149 L15.3942018,25.4265517 L16.6495468,26.2454599 C17.3850113,26.6010613 17.7954518,26.4061379 18.0046401,26.1958055 L18.1948436,26.0390732 C18.4648793,25.7877104 18.7183607,25.5186246 18.9534591,25.2336543 C19.1707354,24.8487857 19.1686767,24.5076111 18.8187594,23.9016669 L18.1012331,22.6883178 L18.4763037,21.7865042 L19.912824,21.4456187 C20.5140047,21.1872974 20.7497039,20.9404037 20.8329348,20.7100156 C20.8597616,20.4360906 20.873494,20.1582992 20.873494,19.8772829 C20.873494,19.6437177 20.8640076,19.4123803 20.8454012,19.1836389 C20.7013187,18.7047431 20.3080832,18.3353312 19.8115982,18.2298703 L18.4926111,17.9496974 L18.1012331,16.9822974 L18.959377,15.4385305 C19.1079803,15.171199 19.1202924,14.8518993 18.9994346,14.5771317 C18.7146408,14.2258001 18.4021282,13.8980844 18.0652494,13.5973556 L20.9201853,10.5333835 C23.4552868,12.837759 25.0481928,16.1704819 25.0481928,19.8772829 C25.0481928,26.831982 19.4409638,32.4698795 12.5240964,32.4698795 C5.60722895,32.4698795 0,26.831982 0,19.8772829 C0,16.206242 1.56232023,12.9020963 4.0549016,10.600362 L6.90936231,13.663824 C6.5834382,13.9617488 6.28104923,14.2852443 6.00533057,14.6311582 C5.90541858,14.8949103 5.92427306,15.1934914 6.06451771,15.445786 L6.92266166,16.9895529 L6.53128365,17.9569529 L5.21229657,18.2371258 C4.74857928,18.3356264 4.37493241,18.6643863 4.21023555,19.0975489 C4.18671851,19.3542874 4.1746988,19.6143738 4.1746988,19.8772829 C4.1746988,20.2002987 4.19284268,20.5190535 4.22816163,20.8325733 C4.34922335,21.0234892 4.59635691,21.2245167 5.08152062,21.4329866 L6.518041,21.7738722 L6.89311159,22.6756857 L6.17558523,23.8890349 C5.86903677,24.4198782 5.8294631,24.747516 5.97045026,25.0793465 C6.34371111,25.5540971 6.7669109,25.9873268 7.23207626,26.3710186 C7.54594318,26.4779412 7.87270713,26.4592185 8.34927528,26.2200604 L9.60506871,25.410155 L10.632436,25.8364669 L10.9956633,27.3664551 C11.3344907,28.0451313 11.5936767,28.2142912 11.8737974,28.230372 L12.2709033,28.230372 L12.2057277,28.2663568 Z M12.6200665,17.877761 C11.4805059,17.877761 10.5567096,18.7863398 10.5567096,19.9071285 C10.5567096,21.0279172 11.4805059,21.936496 12.6200665,21.936496 C13.759627,21.936496 14.6834233,21.0279172 14.6834233,19.9071285 C14.6834233,18.7863398 13.759627,17.877761 12.6200665,17.877761 Z M12.5240964,23.1927711 C10.7485021,23.1927711 9.30909846,21.7433716 9.30909846,19.9554468 C9.30909846,18.1675219 10.7485021,16.7181225 12.5240964,16.7181225 C14.2996907,16.7181225 15.7390943,18.1675219 15.7390943,19.9554468 C15.7390943,21.7433716 14.2996907,23.1927711 12.5240964,23.1927711 Z" id="Shape" fill="#7E7E7E"></path>
                <path d="M11.6557081,11.5715442 C11.5903125,11.6149236 11.5176331,11.6823656 11.4376699,11.7738703 C11.3108386,11.9190077 11.2056902,12.0788995 11.1222249,12.2535456 L10.6795304,13.8923949 L10.0872108,14.1089357 L8.58887118,12.5391083 L5.56626506,9.42755487 C7.0388302,8.4359022 8.7301848,7.74646489 10.5522802,7.44765947 L12.5237156,9.46713687 L14.6228764,7.44101406 C16.4309482,7.73139962 18.1112071,8.40625458 19.5778978,9.37946537 L16.5493075,12.4971791 L15.0960699,14.1089357 L14.5530553,13.9089469 L14.1815678,12.2582009 C14.0815506,12.0832375 13.9681264,11.9231871 13.8412951,11.7780497 C13.7624823,11.6878614 13.6830545,11.620665 13.6030118,11.5764604 C13.2766887,11.5379747 12.9446715,11.5181842 12.6080513,11.5181842 C12.286074,11.5181842 11.968308,11.5362904 11.6557081,11.5715442 Z M12.4281263,6.66792169 C10.5995292,6.66792169 9.11715829,5.17525657 9.11715829,3.33396084 C9.11715829,1.49266511 10.5995292,0 12.4281263,0 C14.2567234,0 15.7390943,1.49266511 15.7390943,3.33396084 C15.7390943,5.17525657 14.2567234,6.66792169 12.4281263,6.66792169 Z" id="Shape" fill="#000000"></path>
            </g>
        </g>
    </g>
</svg>