<?xml version="1.0" encoding="UTF-8"?>
<svg width="40px" height="40px" viewBox="0 0 40 40" version="1.1" xmlns="http://www.w3.org/2000/svg" xmlns:xlink="http://www.w3.org/1999/xlink">
    <!-- Generator: Sketch 52.6 (67491) - http://www.bohemiancoding.com/sketch -->
    <title>close</title>
    <desc>Created with Sketch.</desc>
    <g id="Sample" stroke="none" stroke-width="1" fill="none" fill-rule="evenodd">
        <g id="Desk-Order:-default-interface-Copy" transform="translate(-1192.000000, -31.000000)">
            <g id="Modal" transform="translate(48.000000, 30.000000)">
                <g id="close" transform="translate(1144.000000, 1.000000)">
                    <rect id="Rectangle-10" fill="#EFEFEF" x="0" y="0" width="40" height="40"></rect>
                    <path d="M21.2173913,20 L26.7391304,25.5434783 C26.9130443,25.7028993 27,25.9021727 27,26.1413043 C27,26.380436 26.9166675,26.5833325 26.75,26.75 C26.5833325,26.9166675 26.380436,27 26.1413043,27 C25.9021727,27 25.7028993,26.9130443 25.5434783,26.7391304 L20,21.1956522 L14.4565217,26.7391304 C14.2971007,26.9130443 14.0978273,27 13.8586957,27 C13.619564,27 13.4166675,26.9166675 13.25,26.75 C13.0833325,26.5833325 13,26.380436 13,26.1413043 C13,25.9021727 13.0869557,25.7028993 13.2608696,25.5434783 L18.7826087,20 L13.2608696,14.4565217 C13.0869557,14.2971007 13,14.0978273 13,13.8586957 C13,13.619564 13.0833325,13.4166675 13.25,13.25 C13.4166675,13.0833325 13.619564,13 13.8586957,13 C14.0978273,13 14.2971007,13.0869557 14.4565217,13.2608696 L20,18.7826087 L25.5434783,13.2608696 C25.7028993,13.0869557 25.9021727,13 26.1413043,13 C26.380436,13 26.5833325,13.0833325 26.75,13.25 C26.9166675,13.4166675 27,13.619564 27,13.8586957 C27,14.0978273 26.9130443,14.2971007 26.7391304,14.4565217 L21.2173913,20 Z" id="close---anticon" fill="#000000"></path>
                </g>
            </g>
        </g>
    </g>
</svg>