<?xml version="1.0" encoding="UTF-8"?>
<svg width="15px" height="15px" viewBox="0 0 15 15" version="1.1" xmlns="http://www.w3.org/2000/svg" xmlns:xlink="http://www.w3.org/1999/xlink">
    <!-- Generator: Sketch 53.2 (72643) - https://sketchapp.com -->
    <title>profile</title>
    <desc>Created with Sketch.</desc>
    <g id="Dashboard-Study" stroke="none" stroke-width="1" fill="none" fill-rule="evenodd">
        <g id="expand-menu" transform="translate(-798.000000, -333.000000)" fill="#000000" fill-rule="nonzero">
            <g id="Group-9" transform="translate(259.000000, 82.000000)">
                <g id="BODY" transform="translate(20.000000, 20.000000)">
                    <g id="notificat-1" transform="translate(286.000000, 198.000000)">
                        <g id="query" transform="translate(233.000000, 33.000000)">
                            <g id="profile">
                                <path d="M7.51022727,2.36618182 C6.47772971,2.3661818 5.52366261,2.89497945 5.00741382,3.75338181 C4.49116503,4.61178416 4.49116503,5.66937948 5.00741382,6.52778183 C5.52366261,7.38618418 6.47772971,7.91498183 7.51022727,7.91498182 C9.1063302,7.91498182 10.4002273,6.67284063 10.4002273,5.14058182 C10.4002273,3.60832301 9.1063302,2.36618182 7.51022727,2.36618182 Z M12.8034091,2.10872727 C11.3870455,0.749018182 9.50386364,1.95399252e-14 7.5,1.95399252e-14 C5.49681818,1.95399252e-14 3.61295455,0.749018182 2.19659091,2.10872727 C0.78,3.46843636 -1.77635684e-15,5.27716364 -1.77635684e-15,7.20021818 C-1.77635684e-15,9.12283636 0.78,10.9313455 2.19659091,12.2910545 C3.61318182,13.6507636 5.49681818,14.4004364 7.5,14.4004364 C9.50386364,14.4004364 11.3870455,13.6507636 12.8034091,12.2910545 C14.22,10.9313455 15,9.12283636 15,7.20021818 C15,5.27716364 14.22,3.46843636 12.8034091,2.10872727 Z M12.3829545,12.0534545 C11.9140909,10.1395636 10.4179545,8.75301818 7.49840909,8.75301818 C4.58045455,8.75301818 3.08409091,10.1382545 2.61477273,12.0519273 C1.29272727,10.8242182 0.470227273,9.10472727 0.470227273,7.20021818 C0.470227273,3.4728 3.6175,0.451418182 7.5,0.451418182 C11.3825,0.451418182 14.5297727,3.4728 14.5297727,7.20021818 C14.5297727,9.10581818 13.7065909,10.8272727 12.3829545,12.0534545 Z"></path>
                            </g>
                        </g>
                    </g>
                </g>
            </g>
        </g>
    </g>
</svg>